<svg width="80" height="38" viewBox="0 0 80 38" fill="none" xmlns="http://www.w3.org/2000/svg">
<path d="M17.8516 15.2148C17.9492 15.2148 17.998 15.4785 17.998 16.0059C17.998 16.5332 18.0176 16.8945 18.0566 17.0898L8.00781 18.3203L8.53516 24.8242L6.16211 24.707C6.16211 22.9492 5.9668 20.9375 5.57617 18.6719L1.76758 20.1367C1.51367 20.1367 1.29883 19.9902 1.12305 19.6973C0.810547 19.1895 0.654297 18.7305 0.654297 18.3203L5.10742 16.7383C4.7168 13.3789 4.52148 10.6543 4.52148 8.56445C4.52148 6.45508 4.69727 4.81445 5.04883 3.64258C5.40039 2.4707 5.9082 1.68945 6.57227 1.29883C7.25586 0.888672 7.97852 0.683594 8.74023 0.683594C9.50195 0.683594 10.2734 0.849609 11.0547 1.18164C11.8555 1.51367 12.6172 1.93359 13.3398 2.44141C14.0625 2.94922 14.6777 3.52539 15.1855 4.16992C15.6934 4.79492 15.9473 5.41016 15.9473 6.01562C15.9473 6.48438 15.8984 6.81641 15.8008 7.01172C15.0195 5.91797 14.0723 4.94141 12.959 4.08203C11.6309 3.06641 10.3809 2.55859 9.20898 2.55859C8.0957 2.55859 7.35352 3.34961 6.98242 4.93164C6.80664 5.75195 6.71875 6.91406 6.71875 8.41797C6.71875 9.90234 6.75781 11.2695 6.83594 12.5195C6.91406 13.75 7.14844 14.9902 7.53906 16.2402C8.75 16.2402 10.1074 16.1328 11.6113 15.918C14.502 15.4688 16.582 15.2344 17.8516 15.2148ZM18.7012 21.1035C18.7012 20.791 18.6719 20.3613 18.6133 19.8145C18.5742 19.248 18.5352 18.6328 18.4961 17.9688C18.457 17.3047 18.4375 16.6309 18.4375 15.9473C18.4375 15.2637 18.4961 14.6387 18.6133 14.0723C18.8672 12.8027 19.3945 12.168 20.1953 12.168C20.7422 12.3242 21.1035 12.5195 21.2793 12.7539C21.4746 12.9883 21.5723 13.2812 21.5723 13.6328C21.5723 13.9648 21.4844 14.3848 21.3086 14.8926C20.6641 16.5918 20.3418 18.125 20.3418 19.4922C20.3418 19.9414 20.3711 20.4199 20.4297 20.9277C20.7422 22.2363 21.8164 22.8906 23.6523 22.8906C24.6094 22.8906 25.5176 22.7246 26.377 22.3926C28.0176 21.7871 29.1309 21.0742 29.7168 20.2539C29.8926 19.3555 29.9805 18.5742 29.9805 17.9102C29.9805 17.2266 29.9512 16.6211 29.8926 16.0938C29.8535 15.5664 29.7949 14.9902 29.7168 14.3652C29.6582 13.7207 29.6191 13.0176 29.5996 12.2559C29.8535 12.1387 30.0977 12.0801 30.332 12.0801C30.5859 12.0801 30.8398 12.207 31.0938 12.4609C31.3672 12.7148 31.5918 13.1934 31.7676 13.8965C31.9629 14.5996 32.0898 15.4297 32.1484 16.3867C32.207 17.3242 32.2363 18.3008 32.2363 19.3164C32.2559 20.332 32.2656 21.3184 32.2656 22.2754C32.2656 23.2129 32.3047 24.0234 32.3828 24.707C32.1484 24.9219 31.9238 25.0293 31.709 25.0293C30.9277 25.0293 30.3516 24.248 29.9805 22.6855C29.7266 22.9004 29.2969 23.1641 28.6914 23.4766C27.4023 24.1797 25.8789 24.6484 24.1211 24.8828C23.7891 24.9219 23.418 24.9414 23.0078 24.9414C22.5977 24.9414 22.0801 24.8633 21.4551 24.707C20.8496 24.5508 20.2734 24.1895 19.7266 23.623C19.1797 23.0566 18.8379 22.2168 18.7012 21.1035ZM45.5078 18.584C45.5078 16.2598 45.3809 14.5508 45.127 13.457C45.2832 13.1641 45.0488 13.0176 44.4238 13.0176C43.7598 13.0176 42.9004 13.1836 41.8457 13.5156C40.791 13.8477 39.9316 14.1797 39.2676 14.5117C37.6855 15.2734 36.8066 16.0156 36.6309 16.7383V24.707H34.668C34.4141 24.043 34.2871 22.1777 34.2871 19.1113C34.2871 16.377 34.3359 14.3652 34.4336 13.0762C34.5508 11.7871 34.6387 11.0547 34.6973 10.8789C35.2051 10.5469 35.6152 10.3809 35.9277 10.3809C36.416 10.3809 36.6602 10.957 36.6602 12.1094C36.6602 12.5586 36.6309 12.998 36.5723 13.4277C36.5332 13.8379 36.5137 14.1211 36.5137 14.2773C39.6777 11.9531 42.1289 10.791 43.8672 10.791C45.8398 10.791 46.9629 12.3828 47.2363 15.5664C47.3535 16.6797 47.4121 18.2227 47.4121 20.1953L47.3828 22.5098C47.3828 23.3691 47.4023 24.1992 47.4414 25C47.2461 25.1172 47.0898 25.1758 46.9727 25.1758C46.9141 25.1562 46.7871 25.127 46.5918 25.0879C46.3965 25.0488 46.1426 25.0195 45.8301 25C45.6348 24.2188 45.5273 23.4277 45.5078 22.627C45.4883 21.8066 45.4785 21.0547 45.4785 20.3711L45.5078 18.584ZM60.5078 18.584C60.5078 16.2598 60.3809 14.5508 60.127 13.457C60.2832 13.1641 60.0488 13.0176 59.4238 13.0176C58.7598 13.0176 57.9004 13.1836 56.8457 13.5156C55.791 13.8477 54.9316 14.1797 54.2676 14.5117C52.6855 15.2734 51.8066 16.0156 51.6309 16.7383V24.707H49.668C49.4141 24.043 49.2871 22.1777 49.2871 19.1113C49.2871 16.377 49.3359 14.3652 49.4336 13.0762C49.5508 11.7871 49.6387 11.0547 49.6973 10.8789C50.2051 10.5469 50.6152 10.3809 50.9277 10.3809C51.416 10.3809 51.6602 10.957 51.6602 12.1094C51.6602 12.5586 51.6309 12.998 51.5723 13.4277C51.5332 13.8379 51.5137 14.1211 51.5137 14.2773C54.6777 11.9531 57.1289 10.791 58.8672 10.791C60.8398 10.791 61.9629 12.3828 62.2363 15.5664C62.3535 16.6797 62.4121 18.2227 62.4121 20.1953L62.3828 22.5098C62.3828 23.3691 62.4023 24.1992 62.4414 25C62.2461 25.1172 62.0898 25.1758 61.9727 25.1758C61.9141 25.1562 61.7871 25.127 61.5918 25.0879C61.3965 25.0488 61.1426 25.0195 60.8301 25C60.6348 24.2188 60.5273 23.4277 60.5078 22.627C60.4883 21.8066 60.4785 21.0547 60.4785 20.3711L60.5078 18.584ZM70.2637 36.0449C69.8535 36.9629 69.3652 37.4219 68.7988 37.4219C68.5254 37.4219 68.3203 37.2949 68.1836 37.041C68.0664 36.8066 68.0664 36.5234 68.1836 36.1914C68.6133 34.375 69.2285 32.3047 70.0293 29.9805C70.8496 27.6562 71.3965 26.0938 71.6699 25.293C70.9863 24.6094 69.9121 23.2422 68.4473 21.1914C65.4395 16.9727 63.9355 14.6582 63.9355 14.248C63.9355 14.2285 63.9453 14.209 63.9648 14.1895L65.0781 13.0762C66.6211 14.502 68.6328 16.9238 71.1133 20.3418C71.7383 21.2012 72.2363 21.9238 72.6074 22.5098C73.0176 21.6895 73.3398 20.9863 73.5742 20.4004C73.8086 19.7949 73.9941 19.3164 74.1309 18.9648C74.2871 18.5938 74.4922 18.1055 74.7461 17.5C75.4102 15.8789 76.3281 13.8184 77.5 11.3184C77.6758 11.2402 77.8613 11.2012 78.0566 11.2012C78.5449 11.2012 78.8965 11.3281 79.1113 11.582C79.1895 11.6797 79.2285 11.7969 79.2285 11.9336C79.2285 12.0508 79.209 12.168 79.1699 12.2852L70.2637 36.0449Z" fill="white"/>
</svg>
