<svg width="78" height="42" viewBox="0 0 78 42" fill="none" xmlns="http://www.w3.org/2000/svg">
<path d="M4.1788 27.22C3.53346 27.22 2.93213 27.1467 2.3748 27C1.8468 26.824 1.52413 26.6627 1.4068 26.516C1.11346 26.164 0.966797 24.3453 0.966797 21.06C0.966797 17.7453 1.33346 13.2573 2.0668 7.596C2.6828 2.932 4.12013 0.599999 6.3788 0.599999C6.9068 0.599999 7.28813 0.893332 7.5228 1.48C7.75746 2.03733 7.8748 2.58 7.8748 3.108C7.8748 6.92133 6.71613 11.1893 4.3988 15.912C4.3108 18.3467 4.2668 20.4733 4.2668 22.292C4.2668 24.0813 4.42813 24.976 4.7508 24.976C5.24946 24.9467 5.9388 24.3307 6.8188 23.128C7.6988 21.896 8.56413 20.3267 9.4148 18.42C10.2948 16.5133 10.8228 15.56 10.9988 15.56C11.2041 15.56 11.3068 15.6773 11.3068 15.912C11.3068 16.7333 10.8815 18.0387 10.0308 19.828C7.71346 24.756 5.7628 27.22 4.1788 27.22ZM6.7748 3.504C6.7748 2.56533 6.65746 2.096 6.4228 2.096C5.5428 2.096 4.89746 5.748 4.4868 13.052C6.01213 9.03333 6.7748 5.85067 6.7748 3.504ZM22.4302 17.452C23.6035 17.0707 24.4102 16.748 24.8502 16.484C25.3195 16.1907 25.6715 15.9707 25.9062 15.824L26.4342 15.516C26.5809 15.428 26.6982 15.384 26.7862 15.384C27.0209 15.384 27.1382 15.516 27.1382 15.78C27.1382 16.044 26.6835 16.5133 25.7742 17.188C24.8649 17.8333 23.7355 18.42 22.3862 18.948C22.1809 21.412 21.4035 23.4067 20.0542 24.932C18.7049 26.4573 16.7835 27.22 14.2902 27.22C12.4715 27.22 11.0782 26.5013 10.1102 25.064C9.1422 23.5973 8.6582 21.896 8.6582 19.96C8.6582 17.9947 9.2302 16.1467 10.3742 14.416C11.5475 12.6853 13.0435 11.82 14.8622 11.82C15.6835 11.2333 16.6515 10.94 17.7662 10.94C18.9102 10.94 19.9662 11.5413 20.9342 12.744C21.9022 13.9467 22.4009 15.516 22.4302 17.452ZM19.5702 19.696L17.9862 19.784C16.6369 19.784 15.4929 19.388 14.5542 18.596C13.6155 17.7747 13.1462 16.88 13.1462 15.912C13.1462 14.944 13.3075 14.108 13.6302 13.404C12.3689 14.4013 11.7382 16.3667 11.7382 19.3C11.7382 20.708 12.0315 22.0573 12.6182 23.348C13.2049 24.6093 14.1289 25.24 15.3902 25.24C16.6515 25.24 17.6342 24.712 18.3382 23.656C19.0422 22.5707 19.4529 21.2507 19.5702 19.696ZM16.8422 12.392C16.3729 12.392 16.0062 12.612 15.7422 13.052C15.4782 13.4627 15.3462 13.9173 15.3462 14.416C15.3462 15.5013 15.7129 16.3813 16.4462 17.056C17.2089 17.7307 18.0889 18.068 19.0862 18.068H19.6142C19.5555 16.6307 19.3062 15.3253 18.8662 14.152C18.4555 12.9787 17.7809 12.392 16.8422 12.392ZM30.1855 25.064C31.2415 25.064 32.1655 24.5213 32.9575 23.436C33.7495 22.3213 34.3362 20.972 34.7175 19.388C33.6615 19.0653 32.8549 18.508 32.2975 17.716C31.7402 16.8947 31.4615 15.956 31.4615 14.9C31.4615 13.844 31.7255 12.92 32.2535 12.128C32.8109 11.336 33.6029 10.94 34.6295 10.94C35.2455 10.94 35.7149 11.336 36.0375 12.128C36.3602 12.8907 36.5215 13.756 36.5215 14.724C36.5215 15.692 36.4482 16.66 36.3015 17.628C36.7415 17.804 37.2109 17.892 37.7095 17.892C38.8535 17.892 39.9535 17.364 41.0095 16.308C41.5375 15.78 41.8895 15.516 42.0655 15.516C42.2709 15.516 42.3735 15.6627 42.3735 15.956C42.3735 16.2493 42.1829 16.6013 41.8015 17.012C40.2469 18.7427 38.2815 19.608 35.9055 19.608C35.3482 21.7493 34.4829 23.5533 33.3095 25.02C32.1362 26.4867 30.6989 27.22 28.9975 27.22C28.0002 27.22 27.1789 26.7947 26.5335 25.944C25.4482 24.5653 24.9055 22.5413 24.9055 19.872C24.9055 18.9627 24.9789 17.7893 25.1255 16.352C25.2722 14.9147 25.4335 14.0347 25.6095 13.712C25.8149 13.3893 26.2842 12.9933 27.0175 12.524C27.7802 12.0547 28.3082 11.82 28.6015 11.82C29.0415 11.82 29.2615 12.084 29.2615 12.612C29.2615 14.108 28.8802 15.736 28.1175 17.496C28.1175 19.5787 28.2789 21.368 28.6015 22.864C28.9535 24.3307 29.4815 25.064 30.1855 25.064ZM34.1895 12.612C33.9549 12.612 33.8375 13.096 33.8375 14.064C33.8375 15.032 34.2775 15.956 35.1575 16.836C35.2162 16.484 35.2455 16.132 35.2455 15.78C35.2455 13.668 34.8935 12.612 34.1895 12.612ZM45.4364 27.22C43.7937 27.22 42.4884 26.604 41.5204 25.372C40.5524 24.1107 40.0684 22.688 40.0684 21.104C40.0684 17.9067 40.743 15.4867 42.0924 13.844C43.4417 12.2013 45.187 11.38 47.3284 11.38C48.3257 11.38 49.147 11.6587 49.7924 12.216C50.4377 12.744 50.7604 13.4773 50.7604 14.416C50.7604 16.176 50.0124 17.6573 48.5164 18.86C47.0497 20.0333 45.2457 20.6493 43.1044 20.708C43.2217 21.852 43.603 22.8493 44.2484 23.7C44.923 24.5213 45.7004 24.932 46.5804 24.932C47.4604 24.932 48.2524 24.7267 48.9564 24.316C49.6604 23.9053 50.3057 23.3187 50.8924 22.556C52.1244 20.9427 53.1804 19.1093 54.0604 17.056C54.295 16.528 54.471 16.1467 54.5884 15.912C54.735 15.6773 54.8817 15.56 55.0284 15.56C55.2044 15.56 55.2924 15.6773 55.2924 15.912C55.2924 17.3787 54.3977 19.5787 52.6084 22.512C50.6724 25.6507 48.2817 27.22 45.4364 27.22ZM43.1044 19.652C44.835 19.3587 46.0964 18.8013 46.8884 17.98C47.7097 17.1587 48.1204 16.088 48.1204 14.768C48.1204 13.448 47.695 12.788 46.8444 12.788C45.8177 12.788 44.9524 13.5067 44.2484 14.944C43.5444 16.352 43.163 17.9213 43.1044 19.652ZM56.171 27.22C55.5257 27.22 54.9243 27.1467 54.367 27C53.839 26.824 53.5163 26.6627 53.399 26.516C53.1057 26.164 52.959 24.3453 52.959 21.06C52.959 17.7453 53.3257 13.2573 54.059 7.596C54.675 2.932 56.1123 0.599999 58.371 0.599999C58.899 0.599999 59.2803 0.893332 59.515 1.48C59.7497 2.03733 59.867 2.58 59.867 3.108C59.867 6.92133 58.7083 11.1893 56.391 15.912C56.303 18.3467 56.259 20.4733 56.259 22.292C56.259 24.0813 56.4203 24.976 56.743 24.976C57.2417 24.9467 57.931 24.3307 58.811 23.128C59.691 21.896 60.5563 20.3267 61.407 18.42C62.287 16.5133 62.815 15.56 62.991 15.56C63.1963 15.56 63.299 15.6773 63.299 15.912C63.299 16.7333 62.8737 18.0387 62.023 19.828C59.7057 24.756 57.755 27.22 56.171 27.22ZM58.767 3.504C58.767 2.56533 58.6497 2.096 58.415 2.096C57.535 2.096 56.8897 5.748 56.479 13.052C58.0043 9.03333 58.767 5.85067 58.767 3.504ZM60.6504 23.172L60.9144 18.244C60.9144 15.1053 61.0611 13.3893 61.3544 13.096C61.6477 12.8027 62.1611 12.3773 62.8944 11.82C63.6571 11.2333 64.1997 10.94 64.5224 10.94C64.8744 10.94 65.0944 10.9987 65.1824 11.116C65.2704 11.2333 65.3144 11.468 65.3144 11.82C65.3144 13.0813 65.0357 14.3573 64.4784 15.648C64.0384 18.3467 63.8184 20.5613 63.8184 22.292C63.8184 24.0227 64.0237 24.888 64.4344 24.888C65.1384 24.888 65.9451 24.272 66.8544 23.04C67.7931 21.7787 68.7464 19.9307 69.7144 17.496C69.7437 16.8507 69.7731 16.176 69.8024 15.472C69.8317 14.7387 69.8611 14.2107 69.8904 13.888C69.9197 13.536 69.9344 13.2867 69.9344 13.14C69.9637 12.9933 70.3744 12.5973 71.1664 11.952C71.9584 11.2773 72.5597 10.94 72.9704 10.94C73.4104 10.94 73.6304 11.4973 73.6304 12.612C73.6304 12.9053 73.5424 13.4773 73.3664 14.328C73.2197 15.1787 73.0437 15.7947 72.8384 16.176C72.6037 18.2587 72.4424 20.0773 72.3544 21.632C75.2291 17.9947 76.7544 16.0733 76.9304 15.868C77.1357 15.6627 77.3117 15.56 77.4584 15.56C77.7517 15.56 77.8984 15.7067 77.8984 16C77.8984 16.176 77.8397 16.3667 77.7224 16.572C76.7837 17.9507 74.9357 20.3707 72.1784 23.832C72.0024 27.3227 71.8851 29.6987 71.8264 30.96C71.6797 34.6853 71.1517 37.296 70.2424 38.792C69.3624 40.3173 67.7784 41.08 65.4904 41.08C64.4931 41.08 63.5544 40.772 62.6744 40.156C61.8237 39.5693 61.3984 38.528 61.3984 37.032C61.3984 35.5653 61.9557 34.0547 63.0704 32.5C64.2144 30.9453 66.2824 28.5547 69.2744 25.328L69.5384 20.532C68.5411 22.732 67.5584 24.404 66.5904 25.548C65.6224 26.6627 64.5517 27.22 63.3784 27.22C62.2051 27.22 61.4571 26.9267 61.1344 26.34C60.8117 25.7533 60.6504 24.6973 60.6504 23.172ZM69.1424 27.396C65.7984 31.004 64.1264 33.8933 64.1264 36.064C64.1264 37.0613 64.3024 37.8827 64.6544 38.528C65.0064 39.1733 65.4904 39.496 66.1064 39.496C67.0451 39.496 67.7051 38.9827 68.0864 37.956C68.4677 36.9293 68.7464 34.8467 68.9224 31.708L69.1424 27.396Z" fill="white"/>
</svg>
