<svg width="89" height="45" viewBox="0 0 89 45" fill="none" xmlns="http://www.w3.org/2000/svg">
<path d="M5.6084 16.1465C6.1748 16.1465 6.67773 16.2002 7.11719 16.3076C7.55664 16.4053 7.9375 16.5273 8.25977 16.6738C8.58203 16.8203 8.8457 16.9668 9.05078 17.1133C9.26562 17.2598 9.42676 17.377 9.53418 17.4648C9.55371 17.3281 9.56348 17.1768 9.56348 17.0107C9.57324 16.8447 9.58301 16.6836 9.59277 16.5273C9.6123 16.3711 9.63672 16.2295 9.66602 16.1025C9.69531 15.9756 9.74414 15.8828 9.8125 15.8242C9.87109 15.7656 9.9541 15.7266 10.0615 15.707C10.1787 15.6777 10.3057 15.6631 10.4424 15.6631C10.6182 15.6631 10.8184 15.6777 11.043 15.707C11.2676 15.7266 11.5166 15.7363 11.79 15.7363C12.3662 15.7363 12.874 15.707 13.3135 15.6484C13.7529 15.5801 14.085 15.5459 14.3096 15.5459C14.5342 15.5459 14.6465 15.5996 14.6465 15.707C14.6465 15.8242 14.5049 15.9268 14.2217 16.0146C13.9385 16.0928 13.6064 16.1855 13.2256 16.293C13.001 16.3516 12.8203 16.4443 12.6836 16.5713C12.5469 16.6885 12.4346 16.8398 12.3467 17.0254C12.2686 17.2109 12.2148 17.4307 12.1855 17.6846C12.1562 17.9287 12.1367 18.207 12.127 18.5195C12.1172 18.5781 12.1123 18.7734 12.1123 19.1055C12.1123 19.4375 12.1074 19.877 12.0977 20.4238C12.0977 20.9609 12.0977 21.5859 12.0977 22.2988C12.0977 23.002 12.0928 23.7637 12.083 24.584C12.083 25.4043 12.083 26.2637 12.083 27.1621C12.083 28.0508 12.083 28.9492 12.083 29.8574C12.083 30.7559 12.083 31.6396 12.083 32.5088C12.083 33.3877 12.083 34.2227 12.083 35.0137C12.083 35.668 12.083 36.2783 12.083 36.8447C12.083 37.4111 12.083 37.9189 12.083 38.3682C12.0928 38.8174 12.0977 39.1934 12.0977 39.4961C12.1074 39.8086 12.1172 40.0381 12.127 40.1846C12.1367 40.5264 12.1904 40.8584 12.2881 41.1807C12.3857 41.5127 12.6006 41.8008 12.9326 42.0449C13.2354 42.2695 13.5527 42.4502 13.8848 42.5869C14.2266 42.7236 14.5098 42.8311 14.7344 42.9092C14.8516 42.958 14.9443 43.002 15.0127 43.041C15.0811 43.0898 15.1152 43.168 15.1152 43.2754C15.1152 43.3633 15.0859 43.4365 15.0273 43.4951C14.9688 43.5635 14.8809 43.5977 14.7637 43.5977C14.4512 43.5977 14.0801 43.5342 13.6504 43.4072C13.2305 43.2803 12.791 43.1338 12.332 42.9678C11.873 42.8115 11.4189 42.6504 10.9697 42.4844C10.5205 42.3281 10.1152 42.2109 9.75391 42.1328C9.48047 42.0742 9.17773 42.0156 8.8457 41.957C8.51367 41.9082 8.17676 41.8643 7.83496 41.8252C7.49316 41.7861 7.16602 41.7568 6.85352 41.7373C6.54102 41.7178 6.26758 41.708 6.0332 41.708C5.66211 41.708 5.42285 41.6738 5.31543 41.6055C5.20801 41.5469 5.1543 41.4736 5.1543 41.3857C5.1543 41.1416 5.37402 41.0195 5.81348 41.0195C5.9209 41.0195 6.06738 41.0195 6.25293 41.0195C6.43848 41.0293 6.62891 41.0342 6.82422 41.0342C7.01953 41.0342 7.20996 41.0342 7.39551 41.0342C7.58105 41.0439 7.72754 41.0488 7.83496 41.0488C8.09863 41.0488 8.30859 41 8.46484 40.9023C8.63086 40.8145 8.75293 40.6875 8.83105 40.5215C8.91895 40.3555 8.97754 40.1602 9.00684 39.9355C9.03613 39.7109 9.05566 39.4619 9.06543 39.1885C9.0752 38.9248 9.08496 38.5098 9.09473 37.9434C9.11426 37.3867 9.13379 36.7422 9.15332 36.0098C9.17285 35.2773 9.1875 34.4863 9.19727 33.6367C9.2168 32.7969 9.23145 31.957 9.24121 31.1172C9.26074 30.2871 9.27539 29.4912 9.28516 28.7295C9.29492 27.9678 9.2998 27.3037 9.2998 26.7373C9.2998 26.3271 9.2998 25.9902 9.2998 25.7266C9.2998 25.4531 9.29004 25.2627 9.27051 25.1553C9.0459 25.3604 8.77734 25.5459 8.46484 25.7119C8.16211 25.8779 7.83008 26.0195 7.46875 26.1367C7.11719 26.2539 6.75098 26.3467 6.37012 26.415C5.98926 26.4736 5.61816 26.5029 5.25684 26.5029C4.96387 26.5029 4.6416 26.4736 4.29004 26.415C3.93848 26.3564 3.57715 26.2539 3.20605 26.1074C2.84473 25.9609 2.49316 25.7656 2.15137 25.5215C1.80957 25.2676 1.50684 24.9551 1.24316 24.584C0.979492 24.2031 0.764648 23.7539 0.598633 23.2363C0.442383 22.709 0.364258 22.0986 0.364258 21.4053C0.364258 20.6045 0.496094 19.8818 0.759766 19.2373C1.0332 18.583 1.4043 18.0312 1.87305 17.582C2.35156 17.123 2.9082 16.7715 3.54297 16.5273C4.1875 16.2734 4.87598 16.1465 5.6084 16.1465ZM6.95605 17.3477C6.49707 17.3477 6.07227 17.4258 5.68164 17.582C5.29102 17.7383 4.94922 17.9727 4.65625 18.2852C4.37305 18.5977 4.14844 18.9932 3.98242 19.4717C3.82617 19.9502 3.74805 20.5117 3.74805 21.1562C3.74805 21.9961 3.85059 22.6895 4.05566 23.2363C4.26074 23.7734 4.52441 24.1982 4.84668 24.5107C5.17871 24.8232 5.54492 25.043 5.94531 25.1699C6.35547 25.2969 6.75586 25.3604 7.14648 25.3604C7.43945 25.3604 7.71777 25.3164 7.98145 25.2285C8.25488 25.1406 8.49414 25.0137 8.69922 24.8477C8.9043 24.6816 9.07031 24.4766 9.19727 24.2324C9.32422 23.9785 9.39746 23.6953 9.41699 23.3828C9.42676 23.1973 9.43652 22.9775 9.44629 22.7236C9.46582 22.46 9.47559 22.1865 9.47559 21.9033C9.48535 21.6201 9.49023 21.3369 9.49023 21.0537C9.5 20.7607 9.50488 20.4873 9.50488 20.2334C9.50488 19.96 9.50488 19.7256 9.50488 19.5303C9.50488 19.3252 9.49512 19.1787 9.47559 19.0908C9.44629 18.8857 9.36328 18.6807 9.22656 18.4756C9.09961 18.2705 8.92871 18.085 8.71387 17.9189C8.49902 17.7529 8.24023 17.6162 7.9375 17.5088C7.64453 17.4014 7.31738 17.3477 6.95605 17.3477ZM19.0117 14.7109C19.0703 14.7109 19.124 14.7549 19.1729 14.8428C19.2217 14.9307 19.2754 15.1553 19.334 15.5166C19.4707 16.3369 19.5879 17.0791 19.6855 17.7432C19.7832 18.4072 19.8857 19.0176 19.9932 19.5742C20.2275 20.8535 20.457 21.9961 20.6816 23.002C20.916 24.0078 21.1895 24.8574 21.502 25.5508C21.8145 26.2441 22.1953 26.7715 22.6445 27.1328C23.1035 27.4941 23.6797 27.6748 24.373 27.6748C24.8711 27.6748 25.3057 27.5625 25.6768 27.3379C26.0479 27.1035 26.3604 26.7959 26.6143 26.415C26.8779 26.0244 27.0928 25.5801 27.2588 25.082C27.4248 24.584 27.5518 24.0713 27.6396 23.5439C27.7373 23.0068 27.8008 22.4746 27.8301 21.9473C27.8691 21.4102 27.8887 20.917 27.8887 20.4678C27.8887 20.0479 27.8789 19.6328 27.8594 19.2227C27.8398 18.8125 27.7715 18.4463 27.6543 18.124C27.5371 17.792 27.3516 17.5283 27.0977 17.333C26.8535 17.1279 26.4971 17.0254 26.0283 17.0254C25.7451 17.0254 25.457 17.0498 25.1641 17.0986C24.8711 17.1475 24.5879 17.1719 24.3145 17.1719C24.1777 17.1719 24.0605 17.1426 23.9629 17.084C23.875 17.0254 23.8311 16.9326 23.8311 16.8057C23.8311 16.6592 23.8848 16.5615 23.9922 16.5127C24.0996 16.4541 24.2363 16.415 24.4023 16.3955C24.5781 16.3857 24.7832 16.3711 25.0176 16.3516C25.252 16.332 25.5059 16.3027 25.7793 16.2637C26.0625 16.2148 26.3604 16.1562 26.6729 16.0879C26.9854 16.0098 27.3076 15.9023 27.6396 15.7656C27.9131 15.6484 28.1719 15.5117 28.416 15.3555C28.6699 15.1992 28.8945 15.0527 29.0898 14.916C29.2949 14.7695 29.4707 14.6475 29.6172 14.5498C29.7734 14.4521 29.8955 14.4033 29.9834 14.4033C30.0908 14.4033 30.1592 14.4912 30.1885 14.667C30.2275 14.833 30.2617 15.0674 30.291 15.3701C30.3301 15.7803 30.3691 16.3174 30.4082 16.9814C30.457 17.6455 30.5107 18.3779 30.5693 19.1787C30.6377 19.9795 30.7109 20.8193 30.7891 21.6982C30.877 22.5674 30.9795 23.4268 31.0967 24.2764C31.1553 24.7256 31.2383 25.0918 31.3457 25.375C31.4531 25.6484 31.5801 25.8633 31.7266 26.0195C31.873 26.1758 32.0342 26.2832 32.21 26.3418C32.3955 26.3906 32.5957 26.415 32.8105 26.415C33.25 26.415 33.6504 26.3809 34.0117 26.3125C34.3828 26.2344 34.6611 26.1953 34.8467 26.1953C35.0322 26.1953 35.1543 26.2295 35.2129 26.2979C35.2715 26.3662 35.3008 26.4443 35.3008 26.5322C35.3008 26.6201 35.2715 26.708 35.2129 26.7959C35.1543 26.874 35.0322 26.9375 34.8467 26.9863C34.5732 27.0449 34.1973 27.1035 33.7188 27.1621C33.2402 27.2109 32.6738 27.2793 32.0195 27.3672C31.4922 27.4453 31.0381 27.5332 30.6572 27.6309C30.2861 27.7188 29.9932 27.7627 29.7783 27.7627C29.5635 27.7627 29.3975 27.7139 29.2803 27.6162C29.1729 27.5186 29.0898 27.3281 29.0312 27.0449C28.9727 26.7617 28.9141 26.4541 28.8555 26.1221C28.7969 25.7803 28.7383 25.4385 28.6797 25.0967C28.6309 24.7549 28.5771 24.4131 28.5186 24.0713C28.4697 23.7295 28.4209 23.4072 28.3721 23.1045C28.2939 23.6318 28.1963 24.1787 28.0791 24.7451C27.9619 25.3115 27.8057 25.8682 27.6104 26.415C27.4248 26.9521 27.1953 27.4648 26.9219 27.9531C26.6582 28.4316 26.3359 28.8516 25.9551 29.2129C25.5742 29.5742 25.1299 29.8623 24.6221 30.0771C24.124 30.292 23.5527 30.3994 22.9082 30.3994C21.8535 30.3994 20.9502 30.1211 20.1982 29.5645C19.4561 28.998 18.8896 28.1973 18.499 27.1621C18.2744 26.5957 18.0938 25.9951 17.957 25.3604C17.8203 24.7256 17.708 24.1055 17.6201 23.5C17.5322 22.8945 17.459 22.333 17.4004 21.8154C17.3516 21.2881 17.2979 20.8486 17.2393 20.4971C17.1807 20.1357 17.1025 19.8379 17.0049 19.6035C16.917 19.3594 16.8145 19.1689 16.6973 19.0322C16.5801 18.8955 16.4482 18.8027 16.3018 18.7539C16.165 18.6953 16.0186 18.666 15.8623 18.666C15.7061 18.666 15.5352 18.6904 15.3496 18.7393C15.1738 18.7783 14.9932 18.8271 14.8076 18.8857C14.6318 18.9346 14.4609 18.9834 14.2949 19.0322C14.1289 19.0713 13.9775 19.0908 13.8408 19.0908C13.7529 19.0908 13.6602 19.0664 13.5625 19.0176C13.4746 18.959 13.4307 18.8516 13.4307 18.6953C13.4307 18.5195 13.5088 18.4023 13.665 18.3438C13.8213 18.2754 14.0215 18.2021 14.2656 18.124C14.5684 18.0361 14.9248 17.9043 15.335 17.7285C15.7549 17.5527 16.1992 17.3086 16.668 16.9961C17.0586 16.7324 17.3809 16.4688 17.6348 16.2051C17.8984 15.9316 18.1133 15.6875 18.2793 15.4727C18.4551 15.248 18.5967 15.0674 18.7041 14.9307C18.8213 14.7842 18.9238 14.7109 19.0117 14.7109ZM39.3291 7.50391C39.9053 7.50391 40.3643 7.65527 40.7061 7.95801C41.0479 8.26074 41.2188 8.69043 41.2188 9.24707C41.2188 9.61816 41.1602 9.93066 41.043 10.1846C40.9258 10.4287 40.7744 10.6289 40.5889 10.7852C40.4033 10.9316 40.1982 11.0391 39.9736 11.1074C39.7588 11.166 39.5439 11.1953 39.3291 11.1953C39.1436 11.1953 38.9482 11.166 38.7432 11.1074C38.5381 11.0488 38.3477 10.9512 38.1719 10.8145C37.9961 10.668 37.8496 10.4824 37.7324 10.2578C37.625 10.0234 37.5713 9.73535 37.5713 9.39355C37.5713 9.03223 37.6299 8.73438 37.7471 8.5C37.8643 8.25586 38.0107 8.06055 38.1865 7.91406C38.3623 7.76758 38.5527 7.66504 38.7578 7.60645C38.9629 7.53809 39.1533 7.50391 39.3291 7.50391ZM41.4092 12.3086C41.5068 12.3086 41.5557 12.4209 41.5557 12.6455C41.5557 12.792 41.5361 13.0361 41.4971 13.3779C41.4678 13.71 41.4287 14.0664 41.3799 14.4473C41.3018 15.0527 41.2236 15.7266 41.1455 16.4688C41.0674 17.2012 40.9893 17.958 40.9111 18.7393C40.8428 19.5107 40.7744 20.2773 40.7061 21.0391C40.6475 21.8008 40.5938 22.5088 40.5449 23.1631C40.4961 23.8076 40.457 24.3789 40.4277 24.877C40.3984 25.3652 40.3838 25.7266 40.3838 25.9609C40.3838 26.2637 40.4033 26.5127 40.4424 26.708C40.4814 26.9033 40.5303 27.0645 40.5889 27.1914C40.6475 27.3184 40.7109 27.4209 40.7793 27.499C40.8574 27.5771 40.9355 27.6455 41.0137 27.7041C41.1016 27.7627 41.209 27.8164 41.3359 27.8652C41.4629 27.9141 41.5996 27.9629 41.7461 28.0117C41.8926 28.0508 42.0391 28.085 42.1855 28.1143C42.3418 28.1436 42.4834 28.1631 42.6104 28.1729C42.8154 28.2119 42.9814 28.2412 43.1084 28.2607C43.2354 28.2803 43.2988 28.3438 43.2988 28.4512C43.2988 28.6465 43.0889 28.7441 42.6689 28.7441C42.376 28.7441 42.083 28.7246 41.79 28.6855C41.4971 28.6367 41.1943 28.583 40.8818 28.5244C40.5791 28.4658 40.2617 28.417 39.9297 28.3779C39.5977 28.3291 39.2412 28.3047 38.8604 28.3047C38.5088 28.3047 38.1914 28.3145 37.9082 28.334C37.625 28.3535 37.3662 28.3779 37.1318 28.4072C36.8975 28.4365 36.6777 28.4609 36.4727 28.4805C36.2676 28.5 36.0625 28.5098 35.8574 28.5098C35.6914 28.5098 35.54 28.4902 35.4033 28.4512C35.2666 28.4023 35.1982 28.3096 35.1982 28.1729C35.1982 28.0361 35.2715 27.9434 35.418 27.8945C35.5742 27.8359 35.7305 27.792 35.8867 27.7627C36.082 27.7236 36.2725 27.6797 36.458 27.6309C36.6436 27.582 36.8096 27.5088 36.9561 27.4111C37.1123 27.3037 37.2393 27.167 37.3369 27.001C37.4443 26.8252 37.5127 26.6006 37.542 26.3271C37.5811 25.79 37.6104 25.2432 37.6299 24.6865C37.6494 24.1299 37.6641 23.583 37.6738 23.0459C37.6836 22.499 37.6885 21.9717 37.6885 21.4639C37.6885 20.9463 37.6885 20.4629 37.6885 20.0137C37.6885 19.4766 37.6885 18.9883 37.6885 18.5488C37.6885 18.0996 37.6787 17.7188 37.6592 17.4062C37.6396 16.9082 37.5811 16.5176 37.4834 16.2344C37.3955 15.9512 37.2637 15.7412 37.0879 15.6045C36.9219 15.4678 36.707 15.3799 36.4434 15.3408C36.1797 15.292 35.8623 15.2529 35.4912 15.2236C35.3838 15.2041 35.2959 15.1699 35.2275 15.1211C35.1689 15.0723 35.1396 14.9941 35.1396 14.8867C35.1396 14.7012 35.2861 14.5938 35.5791 14.5645C35.7256 14.5547 35.9111 14.54 36.1357 14.5205C36.3604 14.4912 36.6191 14.4521 36.9121 14.4033C37.2148 14.3545 37.542 14.2861 37.8936 14.1982C38.2451 14.1006 38.6162 13.9688 39.0068 13.8027C39.4365 13.627 39.7881 13.4512 40.0615 13.2754C40.3447 13.0996 40.5742 12.9434 40.75 12.8066C40.9258 12.6602 41.0625 12.543 41.1602 12.4551C41.2578 12.3574 41.3408 12.3086 41.4092 12.3086ZM47.5322 12.3086C47.5322 12.4258 47.5273 12.5918 47.5176 12.8066C47.5078 13.0117 47.5029 13.2266 47.5029 13.4512C47.5029 13.7344 47.5176 14.0371 47.5469 14.3594C47.5859 14.6719 47.6299 14.9648 47.6787 15.2383C47.7373 15.502 47.791 15.7266 47.8398 15.9121C47.8984 16.0879 47.9473 16.1758 47.9863 16.1758C48.0254 16.1758 48.0791 16.0342 48.1475 15.751C48.2256 15.4678 48.333 15.1113 48.4697 14.6816C48.6162 14.252 48.8018 13.793 49.0264 13.3047C49.251 12.8066 49.5391 12.3428 49.8906 11.9131C50.2422 11.4834 50.6621 11.127 51.1504 10.8438C51.6484 10.5605 52.2344 10.4189 52.9082 10.4189C53.5332 10.4189 54.0557 10.5264 54.4756 10.7412C54.9053 10.9561 55.2471 11.2246 55.501 11.5469C55.7549 11.8691 55.9355 12.2207 56.043 12.6016C56.1504 12.9727 56.2041 13.3242 56.2041 13.6562C56.2041 14.1738 56.1357 14.6279 55.999 15.0186C55.8623 15.3994 55.6768 15.7168 55.4424 15.9707C55.2178 16.2246 54.959 16.4199 54.666 16.5566C54.373 16.6836 54.0752 16.7471 53.7725 16.7471C53.2158 16.7471 52.7617 16.6152 52.4102 16.3516C52.0586 16.0879 51.8828 15.7021 51.8828 15.1943C51.8828 14.9209 51.917 14.6865 51.9854 14.4912C52.0635 14.2959 52.1611 14.1299 52.2783 13.9932C52.4053 13.8564 52.5518 13.7441 52.7178 13.6562C52.8936 13.5586 53.084 13.4805 53.2891 13.4219C53.709 13.2949 53.9922 13.1387 54.1387 12.9531C54.2949 12.7676 54.373 12.5527 54.373 12.3086C54.373 12.1621 54.3438 12.0205 54.2852 11.8838C54.2363 11.7471 54.1484 11.625 54.0215 11.5176C53.9043 11.4004 53.748 11.3076 53.5527 11.2393C53.3672 11.1709 53.1377 11.1367 52.8643 11.1367C52.3076 11.1367 51.8193 11.2686 51.3994 11.5322C50.9795 11.7861 50.6133 12.1328 50.3008 12.5723C49.9883 13.002 49.7295 13.5 49.5244 14.0664C49.3193 14.6328 49.1533 15.2285 49.0264 15.8535C48.8994 16.4688 48.8066 17.0938 48.748 17.7285C48.6992 18.3535 48.6748 18.9395 48.6748 19.4863C48.6748 19.9844 48.6943 20.5264 48.7334 21.1123C48.7725 21.6885 48.8213 22.2695 48.8799 22.8555C48.9482 23.4414 49.0215 24.0127 49.0996 24.5693C49.1777 25.126 49.251 25.6338 49.3193 26.0928C49.3975 26.5518 49.4658 26.9473 49.5244 27.2793C49.583 27.6113 49.627 27.8408 49.6562 27.9678C49.7637 28.4072 49.9297 28.7148 50.1543 28.8906C50.3887 29.0566 50.6963 29.1396 51.0771 29.1396C51.2432 29.1396 51.4141 29.1348 51.5898 29.125C51.7754 29.1152 51.9121 29.1104 52 29.1104C52.2637 29.1104 52.3955 29.208 52.3955 29.4033C52.3955 29.5596 52.3223 29.6621 52.1758 29.7109C52.0586 29.7598 51.8486 29.7891 51.5459 29.7988C51.2529 29.8086 50.9062 29.8184 50.5059 29.8281C50.1152 29.8379 49.6904 29.8525 49.2314 29.8721C48.7725 29.8916 48.3281 29.9258 47.8984 29.9746C47.4199 30.0332 46.9561 30.1162 46.5068 30.2236C46.0576 30.3213 45.6426 30.4189 45.2617 30.5166C44.8809 30.6045 44.5439 30.6826 44.251 30.751C43.958 30.8193 43.7236 30.8535 43.5479 30.8535C43.3623 30.8535 43.2354 30.8145 43.167 30.7363C43.0986 30.6582 43.0645 30.5752 43.0645 30.4873C43.0645 30.3408 43.123 30.2383 43.2402 30.1797C43.3672 30.1113 43.5381 30.043 43.7529 29.9746C43.9189 29.9258 44.1143 29.877 44.3389 29.8281C44.5732 29.7695 44.8467 29.6719 45.1592 29.5352C45.4717 29.3984 45.6865 29.2178 45.8037 28.9932C45.9307 28.7588 45.9941 28.4072 45.9941 27.9385C45.9941 27.792 45.9844 27.5479 45.9648 27.2061C45.9453 26.8545 45.916 26.4395 45.877 25.9609C45.8477 25.4824 45.8086 24.96 45.7598 24.3936C45.7207 23.8174 45.6768 23.2314 45.6279 22.6357C45.5791 22.0303 45.5254 21.4297 45.4668 20.834C45.418 20.2383 45.3691 19.6816 45.3203 19.1641C45.2715 18.6367 45.2227 18.168 45.1738 17.7578C45.1348 17.3477 45.1006 17.0205 45.0713 16.7764C45.0322 16.4834 44.9736 16.2539 44.8955 16.0879C44.8174 15.9121 44.7246 15.7803 44.6172 15.6924C44.5098 15.6045 44.3828 15.5508 44.2363 15.5312C44.0996 15.502 43.9482 15.4873 43.7822 15.4873H43.1816C43.1328 15.4873 43.0693 15.4873 42.9912 15.4873C42.9229 15.4775 42.8545 15.4629 42.7861 15.4434C42.7178 15.4141 42.6592 15.375 42.6104 15.3262C42.5713 15.2773 42.5518 15.2139 42.5518 15.1357C42.5518 15.0283 42.5957 14.9502 42.6836 14.9014C42.7715 14.8525 42.8789 14.8184 43.0059 14.7988C43.4941 14.7402 43.9336 14.6572 44.3242 14.5498C44.7246 14.4424 45.1152 14.2471 45.4961 13.9639C45.7305 13.7783 45.9746 13.5342 46.2285 13.2314C46.4922 12.9189 46.707 12.5918 46.873 12.25C46.9902 12.0059 47.1172 11.8838 47.2539 11.8838C47.3809 11.8838 47.459 11.9326 47.4883 12.0303C47.5176 12.1279 47.5322 12.2207 47.5322 12.3086ZM59.5293 34.2666C59.0312 34.2666 58.5234 34.2861 58.0059 34.3252C57.4883 34.3643 56.9902 34.4082 56.5117 34.457C56.043 34.5156 55.6133 34.5645 55.2227 34.6035C54.832 34.6426 54.5098 34.6621 54.2559 34.6621C54.0605 34.6621 53.9287 34.6279 53.8604 34.5596C53.7822 34.4912 53.7432 34.4033 53.7432 34.2959C53.7432 34.0615 53.9141 33.9443 54.2559 33.9443C54.6758 33.9443 55.0273 33.9102 55.3105 33.8418C55.5938 33.7832 55.8428 33.7148 56.0576 33.6367C56.4971 33.4707 56.8389 33.2266 57.083 32.9043C57.3271 32.582 57.5029 32.2207 57.6104 31.8203C57.7178 31.4199 57.7812 30.9951 57.8008 30.5459C57.8203 30.0967 57.8301 29.667 57.8301 29.2568C57.8301 28.6904 57.8252 28.0703 57.8154 27.3965C57.8154 26.7129 57.8057 26.0098 57.7861 25.2871C57.7764 24.5547 57.7666 23.8223 57.7568 23.0898C57.7471 22.3477 57.7324 21.6348 57.7129 20.9512C57.7031 20.2578 57.6885 19.6133 57.6689 19.0176C57.6592 18.4121 57.6494 17.8848 57.6396 17.4355C57.6299 16.8691 57.6201 16.2539 57.6104 15.5898C57.6006 14.9258 57.5859 14.252 57.5664 13.5684C57.5566 12.875 57.542 12.1865 57.5225 11.5029C57.5127 10.8193 57.4932 10.1797 57.4639 9.58398C57.4443 8.98828 57.4199 8.45605 57.3906 7.9873C57.3613 7.50879 57.3271 7.12793 57.2881 6.84473C57.2295 6.44434 57.127 6.12207 56.9805 5.87793C56.834 5.63379 56.6631 5.44824 56.4678 5.32129C56.2822 5.18457 56.0723 5.09668 55.8379 5.05762C55.6133 5.00879 55.3838 4.98438 55.1494 4.98438C54.8076 4.98438 54.4463 5.01367 54.0654 5.07227C53.6846 5.12109 53.3379 5.14551 53.0254 5.14551C52.7715 5.14551 52.5908 5.11621 52.4834 5.05762C52.3662 4.98926 52.3076 4.88672 52.3076 4.75C52.3076 4.63281 52.3516 4.54004 52.4395 4.47168C52.5273 4.40332 52.6299 4.35449 52.7471 4.3252C53.2549 4.21777 53.7236 4.11035 54.1533 4.00293C54.5732 3.89551 54.9639 3.7832 55.3252 3.66602C55.6865 3.53906 56.0234 3.40234 56.3359 3.25586C56.6582 3.10938 56.9756 2.93848 57.2881 2.74316C57.6299 2.52832 57.918 2.30371 58.1523 2.06934C58.3965 1.83496 58.6016 1.625 58.7676 1.43945C58.9434 1.25391 59.0898 1.10254 59.207 0.985352C59.334 0.858398 59.4512 0.794922 59.5586 0.794922C59.6953 0.794922 59.7832 0.863281 59.8223 1C59.8711 1.12695 59.8955 1.25879 59.8955 1.39551C59.8955 1.55176 59.8906 1.76172 59.8809 2.02539C59.8711 2.2793 59.8613 2.55762 59.8516 2.86035C59.8418 3.16309 59.832 3.4707 59.8223 3.7832C59.8125 4.08594 59.8076 4.35937 59.8076 4.60352C59.8076 4.98438 59.8125 5.50684 59.8223 6.1709C59.8418 6.83496 59.8613 7.58691 59.8809 8.42676C59.9102 9.25684 59.9395 10.1455 59.9688 11.0928C59.998 12.04 60.0273 12.9873 60.0566 13.9346C60.0957 14.8818 60.1299 15.8047 60.1592 16.7031C60.1982 17.5918 60.2324 18.4023 60.2617 19.1348C60.3008 19.8574 60.335 20.4727 60.3643 20.9805C60.3936 21.4785 60.418 21.8105 60.4375 21.9766C60.8281 21.5664 61.1748 21.21 61.4775 20.9072C61.7803 20.6045 62.0586 20.3164 62.3125 20.043C62.5664 19.7598 62.8154 19.4766 63.0596 19.1934C63.3135 18.9004 63.5869 18.5684 63.8799 18.1973C64.0459 17.9727 64.168 17.7676 64.2461 17.582C64.3242 17.3965 64.3633 17.2207 64.3633 17.0547C64.3633 16.6641 64.1533 16.3613 63.7334 16.1465L62.5322 15.5752C62.3369 15.4678 62.2393 15.3311 62.2393 15.165C62.2393 15.0674 62.2637 14.9844 62.3125 14.916C62.3613 14.8379 62.4541 14.7988 62.5908 14.7988C62.708 14.7988 62.8398 14.8379 62.9863 14.916C63.1328 14.9941 63.3232 15.0869 63.5576 15.1943C63.792 15.3018 64.0752 15.4189 64.4072 15.5459C64.7393 15.6729 65.1445 15.7852 65.623 15.8828C65.8086 15.9219 66.0283 15.9561 66.2822 15.9854C66.5459 16.0146 66.8145 16.0439 67.0879 16.0732C67.3613 16.0928 67.625 16.1123 67.8789 16.1318C68.1426 16.1416 68.3623 16.1465 68.5381 16.1465C68.7432 16.1465 68.9043 16.1758 69.0215 16.2344C69.1387 16.2832 69.1973 16.376 69.1973 16.5127C69.1973 16.6201 69.1436 16.7129 69.0361 16.791C68.9287 16.8594 68.7432 16.8936 68.4795 16.8936C68.2256 16.8936 67.9717 16.9033 67.7178 16.9229C67.4736 16.9424 67.2295 16.9814 66.9854 17.04C66.7412 17.0986 66.4971 17.1865 66.2529 17.3037C66.0088 17.4209 65.7598 17.5771 65.5059 17.7725C65.3496 17.8896 65.1641 18.0459 64.9492 18.2412C64.7441 18.4268 64.5342 18.6318 64.3193 18.8564C64.1143 19.0713 63.9141 19.2959 63.7188 19.5303C63.5234 19.7549 63.3574 19.9697 63.2207 20.1748C63.25 20.3896 63.3184 20.7363 63.4258 21.2148C63.543 21.6836 63.6992 22.2158 63.8945 22.8115C64.0898 23.3975 64.3291 24.0078 64.6123 24.6426C64.9053 25.2676 65.2373 25.8389 65.6084 26.3564C65.9795 26.874 66.3994 27.3037 66.8682 27.6455C67.3369 27.9775 67.8496 28.1436 68.4062 28.1436C68.9238 28.1436 69.3389 27.958 69.6514 27.5869C69.9639 27.2158 70.1201 26.7227 70.1201 26.1074C70.1201 25.8438 70.0859 25.5898 70.0176 25.3457C69.9492 25.0918 69.8613 24.8525 69.7539 24.6279C69.6465 24.4033 69.5195 24.1982 69.373 24.0127C69.2266 23.8174 69.0752 23.6465 68.9189 23.5C68.8018 23.3828 68.6797 23.2803 68.5527 23.1924C68.4355 23.0947 68.377 23.0166 68.377 22.958C68.377 22.8799 68.4307 22.8408 68.5381 22.8408C68.6553 22.8408 68.8164 22.9043 69.0215 23.0312C69.2363 23.1484 69.4316 23.2852 69.6074 23.4414C69.8027 23.5977 69.9883 23.7881 70.1641 24.0127C70.3496 24.2275 70.5107 24.4766 70.6475 24.7598C70.7939 25.043 70.9062 25.3604 70.9844 25.7119C71.0723 26.0537 71.1162 26.4346 71.1162 26.8545C71.1162 27.1572 71.0674 27.5137 70.9697 27.9238C70.8818 28.334 70.7158 28.7295 70.4717 29.1104C70.2373 29.4814 69.9053 29.7988 69.4756 30.0625C69.0459 30.3262 68.4941 30.458 67.8203 30.458C66.9121 30.458 66.1016 30.248 65.3887 29.8281C64.6855 29.3984 64.0605 28.8174 63.5137 28.085C62.9766 27.3525 62.5127 26.498 62.1221 25.5215C61.7314 24.5449 61.3994 23.5098 61.126 22.416L60.5254 23.0752C60.5449 23.5537 60.5693 24.0713 60.5986 24.6279C60.6377 25.1846 60.6816 25.7461 60.7305 26.3125C60.7793 26.8691 60.8281 27.416 60.877 27.9531C60.9258 28.4902 60.9697 28.9834 61.0088 29.4326C61.0576 29.8818 61.1016 30.2725 61.1406 30.6045C61.1797 30.9268 61.2139 31.1562 61.2432 31.293C61.3018 31.6152 61.375 31.9033 61.4629 32.1572C61.5605 32.4111 61.6875 32.626 61.8438 32.8018C62 32.9775 62.2002 33.1094 62.4443 33.1973C62.6885 33.2949 62.9961 33.3438 63.3672 33.3438C63.5332 33.3438 63.709 33.3389 63.8945 33.3291C64.0898 33.3193 64.2754 33.3145 64.4512 33.3145C64.5781 33.3145 64.7051 33.3193 64.832 33.3291C64.959 33.3486 65.0713 33.3779 65.1689 33.417C65.2666 33.4561 65.3447 33.5098 65.4033 33.5781C65.4717 33.6465 65.5059 33.7393 65.5059 33.8564C65.5059 34.0322 65.4131 34.1836 65.2275 34.3105C65.0518 34.4473 64.6953 34.5156 64.1582 34.5156C63.8848 34.5156 63.6113 34.501 63.3379 34.4717C63.0742 34.4521 62.7666 34.4229 62.415 34.3838C62.0732 34.3545 61.668 34.3252 61.1992 34.2959C60.7402 34.2764 60.1836 34.2666 59.5293 34.2666ZM77.9863 14.916C78.0645 14.916 78.1328 14.9355 78.1914 14.9746C78.25 15.0137 78.2793 15.0869 78.2793 15.1943C78.2793 15.3311 78.2109 15.4482 78.0742 15.5459C77.957 15.6436 77.7715 15.7656 77.5176 15.9121C77.2637 16.0586 76.9316 16.2881 76.5215 16.6006C76.2676 16.7861 76.0674 16.9912 75.9209 17.2158C75.7842 17.4404 75.6816 17.6846 75.6133 17.9482C75.5449 18.2119 75.501 18.5049 75.4814 18.8271C75.4717 19.1396 75.4668 19.4766 75.4668 19.8379C75.4766 20.5703 75.5254 21.2881 75.6133 21.9912C75.7012 22.6943 75.8135 23.3535 75.9502 23.9688C76.0869 24.5742 76.2383 25.126 76.4043 25.624C76.5703 26.1123 76.7363 26.5225 76.9023 26.8545C77.2441 27.5576 77.6689 28.1191 78.1768 28.5391C78.6846 28.959 79.2998 29.1689 80.0225 29.1689C80.5303 29.1689 80.9697 29.0469 81.3408 28.8027C81.7217 28.5586 82.0439 28.2412 82.3076 27.8506C82.5713 27.4502 82.7861 27.001 82.9521 26.5029C83.1182 25.9951 83.25 25.4824 83.3477 24.9648C83.4453 24.4473 83.5088 23.9443 83.5381 23.4561C83.5771 22.9678 83.5967 22.543 83.5967 22.1816C83.5967 21.2148 83.5186 20.4775 83.3623 19.9697C83.2061 19.4619 82.9717 19.1104 82.6592 18.915C82.5322 18.8271 82.3857 18.7539 82.2197 18.6953C82.0537 18.6367 81.8877 18.5879 81.7217 18.5488C81.5557 18.5 81.3994 18.4609 81.2529 18.4316C81.1064 18.3926 80.9893 18.3633 80.9014 18.3438C80.6865 18.2949 80.5352 18.2314 80.4473 18.1533C80.3691 18.0752 80.3301 17.9678 80.3301 17.8311C80.3301 17.6943 80.374 17.5869 80.4619 17.5088C80.5596 17.4209 80.6816 17.377 80.8281 17.377C81.1113 17.377 81.4922 17.4014 81.9707 17.4502C82.4492 17.499 83.0107 17.5234 83.6553 17.5234C84.0068 17.5234 84.3926 17.5039 84.8125 17.4648C85.2422 17.416 85.6572 17.3623 86.0576 17.3037C86.458 17.2354 86.8242 17.167 87.1562 17.0986C87.4883 17.0205 87.7422 16.9521 87.918 16.8936C88.0547 16.8447 88.167 16.8154 88.2549 16.8057C88.3428 16.7861 88.4111 16.7764 88.46 16.7764C88.5771 16.7764 88.6748 16.8057 88.7529 16.8643C88.8311 16.9229 88.8701 17.0059 88.8701 17.1133C88.8701 17.2207 88.8457 17.3086 88.7969 17.377C88.7578 17.4355 88.6943 17.4941 88.6064 17.5527C88.3818 17.709 88.1621 17.8555 87.9473 17.9922C87.7324 18.1191 87.5713 18.3047 87.4639 18.5488C87.376 18.7539 87.3076 19.0029 87.2588 19.2959C87.21 19.5889 87.166 19.9502 87.127 20.3799C87.0977 20.7998 87.0635 21.3027 87.0244 21.8887C86.9951 22.4746 86.9512 23.1729 86.8926 23.9834C86.8242 24.8721 86.7314 25.8242 86.6143 26.8398C86.4971 27.8555 86.3408 28.915 86.1455 30.0186C85.96 31.1123 85.7256 32.2451 85.4424 33.417C85.1592 34.5889 84.8223 35.7754 84.4316 36.9766C84.0312 38.1875 83.5674 39.2715 83.04 40.2285C82.5127 41.1953 81.9219 42.0156 81.2676 42.6895C80.6133 43.3633 79.9053 43.876 79.1436 44.2275C78.3818 44.5889 77.5762 44.7695 76.7266 44.7695C76.1211 44.7695 75.5693 44.6768 75.0713 44.4912C74.5732 44.3057 74.1436 44.042 73.7822 43.7002C73.4307 43.3682 73.1572 42.9678 72.9619 42.499C72.7666 42.0303 72.6689 41.5078 72.6689 40.9316C72.6689 40.3164 72.7568 39.75 72.9326 39.2324C73.1182 38.7246 73.3672 38.2803 73.6797 37.8994C74.002 37.5283 74.3779 37.2402 74.8076 37.0352C75.2471 36.8301 75.7256 36.7275 76.2432 36.7275C76.6631 36.7275 77.0293 36.7959 77.3418 36.9326C77.6641 37.0693 77.9326 37.25 78.1475 37.4746C78.3623 37.6992 78.5234 37.9531 78.6309 38.2363C78.7383 38.5293 78.792 38.8271 78.792 39.1299C78.792 39.3936 78.748 39.6377 78.6602 39.8623C78.582 40.0967 78.4648 40.2969 78.3086 40.4629C78.1523 40.6387 77.957 40.7754 77.7227 40.873C77.498 40.9707 77.2441 41.0195 76.9609 41.0195C76.6289 41.0195 76.3555 40.9658 76.1406 40.8584C75.9355 40.751 75.7646 40.6191 75.6279 40.4629C75.4912 40.3066 75.3789 40.1309 75.291 39.9355C75.2031 39.75 75.1201 39.5791 75.042 39.4229C74.9639 39.2666 74.8809 39.1348 74.793 39.0273C74.7051 38.9199 74.5879 38.8662 74.4414 38.8662C74.2852 38.8662 74.1436 38.9248 74.0166 39.042C73.8896 39.1592 73.7773 39.3105 73.6797 39.4961C73.5918 39.6914 73.5234 39.9062 73.4746 40.1406C73.4258 40.3848 73.4014 40.6289 73.4014 40.873C73.4014 41.3418 73.4844 41.7715 73.6504 42.1621C73.8164 42.5527 74.0459 42.8848 74.3389 43.1582C74.6416 43.4316 74.998 43.6416 75.4082 43.7881C75.8184 43.9443 76.2676 44.0225 76.7559 44.0225C77.5762 44.0225 78.2939 43.8369 78.9092 43.4658C79.5342 43.0947 80.0762 42.626 80.5352 42.0596C80.9941 41.4932 81.3799 40.8682 81.6924 40.1846C82.0146 39.5107 82.2734 38.8662 82.4688 38.251C82.6641 37.6357 82.8057 37.0938 82.8936 36.625C82.9912 36.166 83.0547 35.8633 83.084 35.7168C83.3574 33.9883 83.5332 32.4941 83.6113 31.2344C83.6992 29.9746 83.7432 28.9785 83.7432 28.2461C83.7432 28.002 83.7383 27.792 83.7285 27.6162C83.7285 27.4307 83.7236 27.2744 83.7139 27.1475C83.7041 27.001 83.6943 26.874 83.6846 26.7666C83.6162 26.9717 83.5332 27.1865 83.4355 27.4111C83.3574 27.6064 83.2646 27.8262 83.1572 28.0703C83.0498 28.3047 82.9277 28.5391 82.791 28.7734C82.6152 29.0762 82.3906 29.374 82.1172 29.667C81.8535 29.9502 81.541 30.209 81.1797 30.4434C80.8281 30.668 80.4326 30.8535 79.9932 31C79.5635 31.1367 79.0947 31.2051 78.5869 31.2051C77.7178 31.2051 76.9658 31.0244 76.3311 30.6631C75.6963 30.3018 75.1494 29.8184 74.6904 29.2129C74.2314 28.6074 73.8457 27.9141 73.5332 27.1328C73.2305 26.3418 72.9717 25.5215 72.7568 24.6719C72.5518 23.8223 72.3711 22.9727 72.2148 22.123C72.0684 21.2734 71.9219 20.4824 71.7754 19.75C71.7168 19.4473 71.6289 19.2471 71.5117 19.1494C71.3945 19.0518 71.2529 19.0029 71.0869 19.0029C70.9014 19.0029 70.7109 19.0225 70.5156 19.0615C70.3203 19.1006 70.1689 19.1201 70.0615 19.1201C69.9736 19.1201 69.9004 19.0957 69.8418 19.0469C69.793 18.998 69.7686 18.9346 69.7686 18.8564C69.7686 18.6904 69.8662 18.5781 70.0615 18.5195C70.501 18.4023 70.8916 18.29 71.2334 18.1826C71.585 18.0752 71.9023 17.9678 72.1855 17.8604C72.4785 17.7529 72.752 17.6455 73.0059 17.5381C73.2598 17.4209 73.5186 17.2988 73.7822 17.1719C74.3877 16.8789 74.915 16.5957 75.3643 16.3223C75.8135 16.0488 76.2041 15.8096 76.5361 15.6045C76.8682 15.3994 77.1465 15.2334 77.3711 15.1064C77.6055 14.9795 77.8105 14.916 77.9863 14.916Z" fill="white"/>
</svg>
