<svg width="782" height="45" fill="none" xmlns="http://www.w3.org/2000/svg"><path d="M13.728 30.06a.75.75 0 0 1 .08.34c0 .2-.08.367-.24.5a.774.774 0 0 1-.54.2c-.334 0-.567-.16-.7-.48l-1.42-3.24h-7.54l-1.44 3.24c-.134.32-.367.48-.7.48a.848.848 0 0 1-.56-.2.683.683 0 0 1-.16-.84l5.72-12.72c.08-.187.2-.327.36-.42a1.014 1.014 0 0 1 1.06.02c.16.093.28.227.36.4l5.72 12.72zm-3.42-4.04l-3.18-7.18-3.16 7.18h6.34zm14.747 5.12c-.907 0-1.713-.207-2.42-.62-.693-.413-1.233-1-1.62-1.76-.373-.76-.56-1.64-.56-2.64 0-1 .194-1.887.58-2.66.4-.773.953-1.373 1.66-1.8.707-.427 1.52-.64 2.44-.64.507 0 1.007.073 1.5.22.507.133.947.333 1.32.6.24.16.407.32.5.48a.83.83 0 0 1 .16.5c0 .187-.053.34-.16.46a.456.456 0 0 1-.38.18.674.674 0 0 1-.3-.08 2.612 2.612 0 0 1-.28-.16 1.006 1.006 0 0 0-.14-.1 6.196 6.196 0 0 0-1-.54c-.306-.133-.686-.2-1.14-.2-.973 0-1.733.333-2.28 1-.533.653-.8 1.567-.8 2.74 0 1.173.267 2.08.8 2.72.547.64 1.307.96 2.28.96.454 0 .84-.067 1.16-.2a5.253 5.253 0 0 0 1-.54 4.71 4.71 0 0 1 .42-.24.793.793 0 0 1 .34-.1c.147 0 .267.06.36.18.107.12.16.273.16.46a.877.877 0 0 1-.14.48c-.093.133-.267.287-.52.46-.373.253-.826.46-1.36.62-.52.147-1.047.22-1.58.22zm9.59 0c-.92 0-1.733-.207-2.44-.62-.693-.413-1.233-1-1.62-1.76-.373-.773-.56-1.667-.56-2.68 0-1.013.187-1.9.56-2.66.387-.773.927-1.367 1.62-1.78.707-.413 1.52-.62 2.44-.62.92 0 1.734.207 2.44.62.707.413 1.247 1.007 1.62 1.78.387.76.58 1.647.58 2.66 0 1.013-.193 1.907-.58 2.68a4.064 4.064 0 0 1-1.62 1.76c-.706.413-1.52.62-2.44.62zm0-1.34c.96 0 1.694-.313 2.2-.94.52-.64.78-1.567.78-2.78 0-1.187-.26-2.1-.78-2.74-.52-.653-1.253-.98-2.2-.98-.946 0-1.68.327-2.2.98-.52.64-.78 1.553-.78 2.74 0 1.2.254 2.12.76 2.76.52.64 1.26.96 2.22.96zm7.874 1.3a.906.906 0 0 1-.6-.2c-.146-.147-.22-.347-.22-.6V17.6c0-.253.074-.447.22-.58.16-.147.36-.22.6-.22.227 0 .414.073.56.22.16.133.24.327.24.58v12.7c0 .253-.08.453-.24.6a.8.8 0 0 1-.56.2zm4.649 0a.906.906 0 0 1-.6-.2c-.147-.147-.22-.347-.22-.6V17.6c0-.253.073-.447.22-.58.16-.147.36-.22.6-.22.226 0 .413.073.56.22.16.133.24.327.24.58v12.7c0 .253-.08.453-.24.6a.8.8 0 0 1-.56.2zm11.368-2.36c.147 0 .273.06.38.18.107.12.16.273.16.46 0 .333-.233.64-.7.92-.48.28-.987.493-1.52.64-.533.133-1.053.2-1.56.2-1.507 0-2.7-.447-3.58-1.34-.867-.893-1.3-2.127-1.3-3.7 0-1 .193-1.88.58-2.64.387-.773.927-1.373 1.62-1.8.707-.427 1.507-.64 2.4-.64 1.267 0 2.273.413 3.02 1.24.747.827 1.12 1.947 1.12 3.36 0 .267-.053.46-.16.58-.107.12-.28.18-.52.18h-6.44c.12 2.293 1.207 3.44 3.26 3.44.52 0 .967-.067 1.34-.2.373-.147.773-.34 1.2-.58.347-.2.58-.3.7-.3zm-3.5-6.46c-.853 0-1.54.267-2.06.8-.507.533-.807 1.287-.9 2.26h5.66c-.027-.987-.273-1.74-.74-2.26-.467-.533-1.12-.8-1.96-.8zm10.527 8.86c-.907 0-1.713-.207-2.42-.62-.693-.413-1.233-1-1.62-1.76-.373-.76-.56-1.64-.56-2.64 0-1 .193-1.887.58-2.66.4-.773.953-1.373 1.66-1.8.707-.427 1.52-.64 2.44-.64.507 0 1.007.073 1.5.22.507.133.947.333 1.32.6.24.16.407.32.5.48a.83.83 0 0 1 .16.5c0 .187-.053.34-.16.46a.456.456 0 0 1-.38.18.674.674 0 0 1-.3-.08 2.612 2.612 0 0 1-.28-.16 1.006 1.006 0 0 0-.14-.1 6.196 6.196 0 0 0-1-.54c-.307-.133-.687-.2-1.14-.2-.973 0-1.733.333-2.28 1-.533.653-.8 1.567-.8 2.74 0 1.173.267 2.08.8 2.72.547.64 1.307.96 2.28.96.453 0 .84-.067 1.16-.2a5.253 5.253 0 0 0 1-.54 4.71 4.71 0 0 1 .42-.24.793.793 0 0 1 .34-.1c.147 0 .267.06.36.18.107.12.16.273.16.46a.877.877 0 0 1-.14.48c-.093.133-.267.287-.52.46-.373.253-.827.46-1.36.62-.52.147-1.047.22-1.58.22zm10.07-1.32c.467.04.7.253.7.64 0 .227-.087.4-.26.52-.16.107-.407.147-.74.12l-.54-.04c-1.067-.08-1.854-.4-2.36-.96-.507-.56-.76-1.407-.76-2.54v-5.02h-1.34c-.227 0-.407-.053-.54-.16a.623.623 0 0 1-.18-.46c0-.2.06-.36.18-.48.133-.12.313-.18.54-.18h1.34V19c0-.253.073-.447.22-.58.147-.147.347-.22.6-.22.24 0 .433.073.58.22.147.133.22.327.22.58v2.26h2.22c.213 0 .38.06.5.18.133.12.2.28.2.48 0 .187-.067.34-.2.46-.12.107-.287.16-.5.16h-2.22v5.1c0 .733.146 1.267.44 1.6.306.32.76.5 1.36.54l.54.04zm3.117 1.28a.906.906 0 0 1-.6-.2c-.147-.147-.22-.347-.22-.6v-8.44c0-.253.073-.447.22-.58.16-.147.36-.22.6-.22s.433.073.58.22c.146.133.22.327.22.58v8.44c0 .267-.074.467-.22.6-.147.133-.34.2-.58.2zm0-12.14c-.32 0-.58-.093-.78-.28-.2-.187-.3-.433-.3-.74 0-.293.1-.533.3-.72.2-.187.46-.28.78-.28s.58.093.78.28c.2.187.3.427.3.72 0 .307-.1.553-.3.74-.2.187-.46.28-.78.28zm7.868 12.18c-.92 0-1.733-.207-2.44-.62-.693-.413-1.233-1-1.62-1.76-.373-.773-.56-1.667-.56-2.68 0-1.013.187-1.9.56-2.66.387-.773.927-1.367 1.62-1.78.707-.413 1.52-.62 2.44-.62.92 0 1.734.207 2.44.62.707.413 1.247 1.007 1.62 1.78.387.76.58 1.647.58 2.66 0 1.013-.193 1.907-.58 2.68a4.062 4.062 0 0 1-1.62 1.76c-.707.413-1.52.62-2.44.62zm0-1.34c.96 0 1.694-.313 2.2-.94.52-.64.78-1.567.78-2.78 0-1.187-.26-2.1-.78-2.74-.52-.653-1.253-.98-2.2-.98-.947 0-1.68.327-2.2.98-.52.64-.78 1.553-.78 2.74 0 1.2.253 2.12.76 2.76.52.64 1.26.96 2.22.96zm11.954-8.78c2.333 0 3.5 1.287 3.5 3.86v5.42c0 .253-.073.453-.22.6-.133.133-.327.2-.58.2-.253 0-.453-.067-.6-.2-.147-.147-.22-.347-.22-.6v-5.32c0-.907-.18-1.567-.54-1.98-.347-.413-.907-.62-1.68-.62-.894 0-1.607.273-2.14.82-.534.547-.8 1.287-.8 2.22v4.88c0 .253-.073.453-.22.6-.133.133-.327.2-.58.2-.254 0-.454-.067-.6-.2-.147-.147-.22-.347-.22-.6v-8.44c0-.24.073-.433.22-.58.147-.147.347-.22.6-.22.24 0 .426.073.56.22.146.147.22.333.22.56v1.02c.32-.6.766-1.053 1.34-1.36.573-.32 1.227-.48 1.96-.48zm15.663 10.12c-.92 0-1.733-.207-2.44-.62-.693-.413-1.233-1-1.62-1.76-.373-.773-.56-1.667-.56-2.68 0-1.013.187-1.9.56-2.66.387-.773.927-1.367 1.62-1.78.707-.413 1.52-.62 2.44-.62.92 0 1.734.207 2.44.62.707.413 1.247 1.007 1.62 1.78.387.76.58 1.647.58 2.66 0 1.013-.193 1.907-.58 2.68a4.059 4.059 0 0 1-1.62 1.76c-.706.413-1.52.62-2.44.62zm0-1.34c.96 0 1.694-.313 2.2-.94.52-.64.78-1.567.78-2.78 0-1.187-.26-2.1-.78-2.74-.52-.653-1.253-.98-2.2-.98-.946 0-1.68.327-2.2.98-.52.64-.78 1.553-.78 2.74 0 1.2.254 2.12.76 2.76.52.64 1.26.96 2.22.96zm11.335-11.62c-.707.053-1.24.28-1.6.68-.36.387-.54.973-.54 1.76v.64h2.22c.226 0 .4.06.52.18s.18.28.18.48c0 .2-.06.353-.18.46-.12.107-.294.16-.52.16h-2.22v7.76c0 .253-.08.453-.24.6a.802.802 0 0 1-.56.2.906.906 0 0 1-.6-.2c-.147-.147-.22-.347-.22-.6v-7.76h-1.34c-.227 0-.407-.053-.54-.16a.623.623 0 0 1-.18-.46c0-.2.06-.36.18-.48.133-.12.313-.18.54-.18h1.34v-.36c0-1.2.3-2.14.9-2.82.6-.693 1.46-1.08 2.58-1.16l.52-.04c.346-.027.593.007.74.1.16.093.24.26.24.5 0 .387-.234.607-.7.66l-.52.04zm23.526 3.035c.097 0 .146.264.146.79 0 .528.02.89.059 1.085l-10.049 1.23.527 6.504-2.373-.117c0-1.758-.195-3.77-.586-6.035l-3.808 1.465c-.254 0-.469-.147-.645-.44-.312-.508-.469-.966-.469-1.377l4.454-1.582c-.391-3.36-.586-6.084-.586-8.173 0-2.11.175-3.75.527-4.922.352-1.172.859-1.954 1.523-2.344a4.15 4.15 0 0 1 2.168-.615c.762 0 1.534.166 2.315.498a11.88 11.88 0 0 1 2.285 1.26 8.683 8.683 0 0 1 1.846 1.728c.508.625.761 1.24.761 1.846 0 .468-.048.8-.146.996a13.907 13.907 0 0 0-2.842-2.93c-1.328-1.016-2.578-1.523-3.75-1.523-1.113 0-1.855.79-2.226 2.373-.176.82-.264 1.982-.264 3.486 0 1.484.039 2.852.117 4.102.078 1.23.313 2.47.703 3.72 1.211 0 2.569-.107 4.072-.322 2.891-.45 4.971-.684 6.241-.703zm.849 5.889c0-.313-.029-.743-.088-1.29-.039-.566-.078-1.181-.117-1.845a34.481 34.481 0 0 1-.058-2.022c0-.683.058-1.308.175-1.875.254-1.27.782-1.904 1.582-1.904.547.156.909.352 1.084.586.196.234.293.527.293.879 0 .332-.087.752-.263 1.26-.645 1.699-.967 3.232-.967 4.6 0 .448.029.927.088 1.435.312 1.308 1.387 1.963 3.222 1.963.958 0 1.866-.166 2.725-.498 1.641-.606 2.754-1.319 3.34-2.14.176-.898.264-1.679.264-2.343 0-.683-.03-1.289-.088-1.816a34.745 34.745 0 0 0-.176-1.729 31.996 31.996 0 0 1-.117-2.11c.254-.116.498-.175.732-.175.254 0 .508.127.762.38.273.255.498.733.674 1.436.195.704.322 1.534.381 2.49.058.938.087 1.915.087 2.93.02 1.016.03 2.002.03 2.96 0 .937.039 1.747.117 2.431-.234.215-.459.322-.674.322-.781 0-1.357-.781-1.728-2.343-.254.214-.684.478-1.289.79-1.29.704-2.813 1.172-4.571 1.407a9.58 9.58 0 0 1-1.113.058c-.41 0-.928-.078-1.553-.234-.605-.156-1.181-.518-1.728-1.084-.547-.566-.889-1.406-1.026-2.52zm26.807-2.52c0-2.324-.127-4.033-.381-5.127.156-.293-.078-.44-.703-.44-.664 0-1.523.167-2.578.499-1.055.332-1.914.664-2.578.996-1.582.761-2.461 1.504-2.637 2.226v7.969h-1.963c-.254-.664-.381-2.53-.381-5.596 0-2.734.049-4.746.147-6.035.117-1.289.205-2.021.263-2.197.508-.332.918-.498 1.231-.498.488 0 .732.576.732 1.728 0 .45-.029.889-.088 1.319-.039.41-.058.693-.058.85 3.164-2.325 5.615-3.487 7.353-3.487 1.973 0 3.096 1.592 3.369 4.775.118 1.114.176 2.657.176 4.63l-.029 2.314c0 .86.019 1.69.059 2.49-.196.117-.352.176-.469.176a4.103 4.103 0 0 0-.381-.088 5.876 5.876 0 0 0-.762-.088 10.832 10.832 0 0 1-.322-2.373c-.02-.82-.029-1.572-.029-2.256l.029-1.787zm15 0c0-2.324-.127-4.033-.381-5.127.156-.293-.078-.44-.703-.44-.664 0-1.523.167-2.578.499-1.055.332-1.914.664-2.578.996-1.582.761-2.461 1.504-2.637 2.226v7.969h-1.963c-.254-.664-.381-2.53-.381-5.596 0-2.734.049-4.746.147-6.035.117-1.289.205-2.021.263-2.197.508-.332.918-.498 1.231-.498.488 0 .732.576.732 1.728 0 .45-.029.889-.088 1.319-.039.41-.058.693-.058.85 3.164-2.325 5.615-3.487 7.353-3.487 1.973 0 3.096 1.592 3.369 4.775.118 1.114.176 2.657.176 4.63l-.029 2.314c0 .86.019 1.69.059 2.49-.196.117-.352.176-.469.176a4.103 4.103 0 0 0-.381-.088 5.876 5.876 0 0 0-.762-.088 10.832 10.832 0 0 1-.322-2.373c-.02-.82-.029-1.572-.029-2.256l.029-1.787zm9.756 17.46c-.41.919-.899 1.378-1.465 1.378-.273 0-.479-.127-.615-.381-.117-.234-.117-.518 0-.85.429-1.816 1.045-3.886 1.845-6.21a558.955 558.955 0 0 0 1.641-4.688c-.684-.684-1.758-2.05-3.223-4.102-3.007-4.218-4.511-6.533-4.511-6.943 0-.02.009-.039.029-.059l1.113-1.113c1.543 1.426 3.555 3.848 6.035 7.266.625.86 1.123 1.582 1.495 2.168.41-.82.732-1.524.966-2.11l.557-1.435.615-1.465c.664-1.621 1.582-3.682 2.754-6.182.176-.078.361-.117.557-.117.488 0 .84.127 1.054.381a.541.541 0 0 1 .118.352c0 .117-.02.234-.059.351l-8.906 23.76zM213.26 28.84c.333 0 .6.133.8.4.213.253.32.64.32 1.16 0 1.053-.34 1.94-1.02 2.66a.607.607 0 0 1-.46.22.498.498 0 0 1-.36-.16.435.435 0 0 1-.16-.34c0-.147.053-.273.16-.38.347-.36.567-.807.66-1.34a1.213 1.213 0 0 1-.74-.32c-.187-.2-.28-.453-.28-.76 0-.333.1-.607.3-.82a1.06 1.06 0 0 1 .78-.32zm13.165-12.694a6.39 6.39 0 0 1 1.509.162c.439.097.82.22 1.142.366.322.146.586.293.791.44.215.146.376.263.484.35a3.31 3.31 0 0 0 .029-.453l.029-.484c.02-.156.044-.297.073-.425a.511.511 0 0 1 .147-.278.461.461 0 0 1 .249-.117c.117-.03.244-.044.381-.044.176 0 .376.015.6.044a11.662 11.662 0 0 0 2.271-.059c.439-.068.771-.102.996-.102.225 0 .337.054.337.161 0 .117-.142.22-.425.308-.283.078-.615.17-.996.278a1.24 1.24 0 0 0-.542.278 1.344 1.344 0 0 0-.337.454 2.408 2.408 0 0 0-.161.66 9.791 9.791 0 0 0-.059.835 6.477 6.477 0 0 0-.014.585c0 .332-.005.772-.015 1.319v1.875c0 .703-.005 1.465-.015 2.285V38.368c.01.45.015.825.015 1.128.01.313.02.542.029.689.01.341.064.673.161.996.098.332.313.62.645.864.303.224.62.405.952.542.342.137.625.244.85.322.117.049.21.093.278.132.068.049.103.127.103.234a.3.3 0 0 1-.088.22c-.059.069-.147.103-.264.103-.312 0-.684-.064-1.113-.19-.42-.128-.86-.274-1.319-.44a55.763 55.763 0 0 1-1.362-.484 10.45 10.45 0 0 0-1.216-.351 25.37 25.37 0 0 0-.908-.176 31.757 31.757 0 0 0-1.011-.132c-.341-.039-.669-.068-.981-.088-.313-.02-.586-.029-.82-.029-.371 0-.611-.034-.718-.102-.108-.06-.161-.132-.161-.22 0-.244.219-.367.659-.367h.439c.186.01.376.015.572.015h.571c.185.01.332.015.439.015.264 0 .474-.049.63-.147a.813.813 0 0 0 .366-.38 1.71 1.71 0 0 0 .176-.587c.03-.224.049-.473.059-.747.01-.263.019-.678.029-1.245a167.9 167.9 0 0 0 .103-4.307c.019-.84.034-1.679.044-2.519.019-.83.034-1.626.044-2.387.009-.762.014-1.426.014-1.993v-1.01a3.8 3.8 0 0 0-.029-.572c-.225.205-.493.39-.806.557a5.754 5.754 0 0 1-.996.425c-.351.117-.718.21-1.098.278a7.321 7.321 0 0 1-1.114.088c-.293 0-.615-.03-.967-.088a5.38 5.38 0 0 1-1.084-.308 5.143 5.143 0 0 1-1.054-.585 4.13 4.13 0 0 1-.908-.938 5.067 5.067 0 0 1-.645-1.348c-.156-.527-.234-1.137-.234-1.83 0-.801.131-1.524.395-2.169a4.864 4.864 0 0 1 1.113-1.655 4.968 4.968 0 0 1 1.67-1.055 5.587 5.587 0 0 1 2.066-.38zm1.347 1.202a3.4 3.4 0 0 0-1.274.234 2.83 2.83 0 0 0-1.025.703c-.284.313-.508.708-.674 1.187-.156.478-.235 1.04-.235 1.684 0 .84.103 1.534.308 2.08.205.537.469.962.791 1.275.332.312.698.532 1.099.659.41.127.81.19 1.201.19.293 0 .571-.044.835-.131.273-.088.513-.215.718-.381.205-.166.371-.371.498-.616.127-.253.2-.537.219-.85.01-.185.02-.405.03-.658.019-.264.029-.538.029-.82.01-.284.015-.567.015-.85.009-.293.014-.567.014-.82v-.704c0-.205-.009-.351-.029-.44a1.482 1.482 0 0 0-.249-.614 2.111 2.111 0 0 0-.513-.557 2.776 2.776 0 0 0-.776-.41 2.836 2.836 0 0 0-.982-.161zm12.056-2.637c.059 0 .112.044.161.132.049.088.103.312.161.674.137.82.254 1.562.352 2.226.098.664.2 1.275.308 1.831.234 1.28.463 2.422.688 3.428.234 1.006.508 1.855.82 2.549.313.693.694 1.22 1.143 1.582.459.361 1.035.542 1.728.542.499 0 .933-.113 1.304-.337a3.13 3.13 0 0 0 .938-.923c.263-.39.478-.835.644-1.333.166-.498.293-1.01.381-1.538.098-.537.161-1.07.19-1.597.04-.537.059-1.03.059-1.48 0-.42-.01-.834-.029-1.244a3.748 3.748 0 0 0-.205-1.099 1.67 1.67 0 0 0-.557-.791c-.244-.205-.601-.308-1.069-.308-.283 0-.572.025-.865.074a5.148 5.148 0 0 1-.849.073.673.673 0 0 1-.352-.088c-.088-.059-.132-.151-.132-.278 0-.147.054-.245.162-.293a1.13 1.13 0 0 1 .41-.118c.176-.01.381-.024.615-.043.234-.02.488-.05.762-.088.283-.05.581-.108.893-.176.313-.078.635-.186.967-.322.273-.118.532-.254.776-.41.254-.157.479-.303.674-.44.205-.146.381-.268.528-.366.156-.098.278-.147.366-.147.107 0 .176.088.205.264.039.166.073.4.102.703.039.41.079.947.118 1.611l.161 2.198c.068.8.141 1.64.219 2.52.088.868.191 1.728.308 2.577.059.45.142.816.249 1.099.108.273.234.488.381.645.146.156.308.263.483.322.186.049.386.073.601.073.439 0 .84-.034 1.201-.102.371-.079.65-.118.835-.118.186 0 .308.035.366.103a.348.348 0 0 1 .088.234.47.47 0 0 1-.088.264c-.058.078-.18.142-.366.19-.273.059-.649.117-1.128.176a54.74 54.74 0 0 0-1.699.205c-.527.078-.982.166-1.362.264-.371.088-.664.132-.879.132-.215 0-.381-.05-.498-.147-.108-.097-.191-.288-.249-.571-.059-.283-.118-.59-.176-.923l-.176-1.025a36.354 36.354 0 0 0-.161-1.026 54.189 54.189 0 0 0-.147-.966 29.336 29.336 0 0 1-.292 1.64 12.64 12.64 0 0 1-.469 1.67 9.462 9.462 0 0 1-.689 1.538 5.127 5.127 0 0 1-.967 1.26c-.38.361-.825.65-1.333.864-.498.215-1.069.322-1.713.322-1.055 0-1.958-.278-2.71-.835-.743-.566-1.309-1.367-1.7-2.402a11.474 11.474 0 0 1-.542-1.802 27.7 27.7 0 0 1-.336-1.86 52.307 52.307 0 0 1-.22-1.685 19.259 19.259 0 0 0-.161-1.318 4.044 4.044 0 0 0-.235-.893 1.834 1.834 0 0 0-.307-.572.897.897 0 0 0-.396-.278 1.103 1.103 0 0 0-.439-.088c-.157 0-.327.024-.513.073a6.44 6.44 0 0 0-.542.147 35.8 35.8 0 0 0-.513.146c-.166.04-.317.059-.454.059a.623.623 0 0 1-.278-.073c-.088-.059-.132-.166-.132-.323 0-.175.078-.293.234-.351a6.51 6.51 0 0 1 .601-.22c.303-.088.659-.22 1.069-.395a7.97 7.97 0 0 0 1.333-.733 5.99 5.99 0 0 0 .967-.79c.264-.274.479-.518.645-.733.175-.225.317-.406.425-.542.117-.147.219-.22.307-.22zm20.318-7.207c.576 0 1.035.151 1.376.454.342.303.513.732.513 1.29 0 .37-.058.683-.176.937a1.769 1.769 0 0 1-.454.6c-.185.147-.39.254-.615.322-.215.059-.43.088-.644.088a2.13 2.13 0 0 1-.586-.088 1.67 1.67 0 0 1-.572-.292 1.786 1.786 0 0 1-.439-.557c-.108-.235-.161-.523-.161-.864 0-.362.058-.66.175-.894a1.72 1.72 0 0 1 .44-.586c.176-.146.366-.249.571-.308.205-.068.396-.102.572-.102zm2.08 4.805c.097 0 .146.112.146.337 0 .146-.019.39-.059.732a26.44 26.44 0 0 1-.117 1.07c-.078.605-.156 1.279-.234 2.02-.078.733-.156 1.49-.234 2.271l-.206 2.3-.161 2.124a98.135 98.135 0 0 0-.117 1.714c-.029.488-.044.85-.044 1.084 0 .303.02.552.059.747.039.195.088.357.146.483.059.127.122.23.191.308.078.078.156.146.234.205.088.059.195.112.322.161.127.05.264.098.41.147.147.039.293.073.44.102.156.03.298.05.425.059.205.039.371.068.498.088.127.02.19.083.19.19 0 .195-.21.293-.63.293-.293 0-.586-.02-.879-.058a46.04 46.04 0 0 1-.908-.162c-.302-.058-.62-.107-.952-.146a7.357 7.357 0 0 0-1.069-.073 13.954 13.954 0 0 0-1.729.102c-.234.03-.454.054-.659.073-.205.02-.41.03-.615.03-.166 0-.318-.02-.454-.059-.137-.049-.205-.141-.205-.278 0-.137.073-.23.219-.278.157-.06.313-.103.469-.132.195-.04.386-.083.571-.132.186-.049.352-.122.498-.22.157-.107.284-.244.381-.41a1.6 1.6 0 0 0 .205-.674c.039-.537.069-1.084.088-1.64a94.766 94.766 0 0 0 .059-3.223v-1.45-1.465c0-.45-.01-.83-.029-1.143-.02-.498-.079-.888-.176-1.172-.088-.283-.22-.493-.396-.63a1.29 1.29 0 0 0-.644-.263 9.401 9.401 0 0 0-.952-.117.644.644 0 0 1-.264-.103c-.059-.049-.088-.127-.088-.234 0-.186.147-.293.44-.322.146-.01.332-.025.556-.044.225-.03.484-.069.777-.118.302-.049.629-.117.981-.205.352-.097.723-.23 1.113-.395.43-.176.781-.352 1.055-.528.283-.175.513-.332.688-.468.176-.147.313-.264.411-.352.097-.098.18-.146.249-.146zm6.123 0c0 .117-.005.283-.015.498-.01.205-.015.42-.015.644 0 .283.015.586.044.908.039.313.083.606.132.88.059.263.112.488.161.673.059.176.108.264.147.264.039 0 .093-.142.161-.425.078-.283.185-.64.322-1.07.147-.429.332-.888.557-1.376.224-.498.512-.962.864-1.392.352-.43.772-.786 1.26-1.07.498-.283 1.084-.424 1.758-.424.625 0 1.147.107 1.567.322.43.215.771.484 1.025.806.254.322.435.674.542 1.055.108.37.162.722.162 1.054 0 .518-.069.972-.206 1.363a2.75 2.75 0 0 1-.556.952c-.225.254-.484.449-.777.586-.293.127-.59.19-.893.19-.557 0-1.011-.132-1.362-.395-.352-.264-.528-.65-.528-1.158 0-.273.034-.508.103-.703.078-.195.176-.361.293-.498.127-.137.273-.249.439-.337.176-.097.366-.176.571-.234.42-.127.704-.283.85-.469a.972.972 0 0 0 .234-.644c0-.147-.029-.288-.087-.425a.859.859 0 0 0-.264-.366 1.222 1.222 0 0 0-.469-.279 2.002 2.002 0 0 0-.688-.102c-.557 0-1.045.132-1.465.395a3.7 3.7 0 0 0-1.099 1.04c-.312.43-.571.928-.776 1.494a12.64 12.64 0 0 0-.498 1.787c-.127.616-.22 1.24-.279 1.876a23.056 23.056 0 0 0-.073 1.757c0 .498.02 1.04.059 1.626.039.577.088 1.158.146 1.744.069.585.142 1.157.22 1.713.078.557.151 1.065.22 1.524.078.459.146.854.205 1.186.058.332.102.562.132.689.107.44.273.747.498.923.234.166.542.249.923.249.166 0 .336-.005.512-.015.186-.01.323-.015.41-.015.264 0 .396.098.396.293 0 .157-.073.26-.22.308-.117.049-.327.078-.63.088-.293.01-.639.02-1.04.03-.39.009-.815.023-1.274.043-.459.02-.903.054-1.333.103a12.51 12.51 0 0 0-1.392.249c-.449.097-.864.195-1.245.293l-1.011.234a3.27 3.27 0 0 1-.703.102c-.185 0-.312-.039-.381-.117a.374.374 0 0 1-.102-.249c0-.146.058-.249.176-.307.127-.069.297-.137.512-.205.166-.05.362-.098.586-.147.235-.058.508-.156.821-.293.312-.137.527-.317.644-.542.127-.234.191-.586.191-1.054 0-.147-.01-.391-.03-.733a46.954 46.954 0 0 0-.088-1.245c-.029-.479-.068-1.001-.117-1.567a121.692 121.692 0 0 0-.293-3.56 137.35 137.35 0 0 0-.146-1.67 54.488 54.488 0 0 0-.147-1.406c-.039-.41-.073-.738-.102-.982a2.41 2.41 0 0 0-.176-.688 1.055 1.055 0 0 0-.278-.396.749.749 0 0 0-.381-.16 2.179 2.179 0 0 0-.454-.045H263.808a1.513 1.513 0 0 1-.205-.044.55.55 0 0 1-.176-.117.296.296 0 0 1-.059-.19c0-.108.044-.186.132-.235a.961.961 0 0 1 .322-.102 9.072 9.072 0 0 0 1.319-.25c.4-.107.791-.302 1.171-.585a5.14 5.14 0 0 0 .733-.733c.264-.312.478-.64.644-.981.118-.244.245-.366.381-.366.127 0 .205.049.235.146a.98.98 0 0 1 .044.279zm11.997 21.958c-.498 0-1.006.02-1.524.058-.517.04-1.015.083-1.494.132-.469.059-.898.108-1.289.146-.391.04-.713.06-.967.06-.195 0-.327-.035-.395-.103a.335.335 0 0 1-.117-.264c0-.234.17-.352.512-.352.42 0 .772-.034 1.055-.102.283-.059.532-.127.747-.205.439-.166.781-.41 1.025-.733.245-.322.42-.683.528-1.084.107-.4.171-.825.19-1.274.02-.45.029-.879.029-1.29 0-.566-.004-1.186-.014-1.86 0-.683-.01-1.386-.029-2.109l-.03-2.197c-.01-.742-.024-1.455-.044-2.139a94.19 94.19 0 0 0-.044-1.933c-.009-.606-.019-1.133-.029-1.582-.01-.567-.019-1.182-.029-1.846-.01-.664-.025-1.338-.044-2.022-.01-.693-.025-1.381-.044-2.065a54.085 54.085 0 0 0-.059-1.919 53.752 53.752 0 0 0-.073-1.597c-.029-.478-.063-.86-.103-1.142-.058-.4-.161-.723-.307-.967a1.682 1.682 0 0 0-.513-.557 1.442 1.442 0 0 0-.63-.263 3.225 3.225 0 0 0-.688-.074c-.342 0-.703.03-1.084.088a8.248 8.248 0 0 1-1.04.074c-.254 0-.435-.03-.542-.088a.334.334 0 0 1-.176-.308c0-.117.044-.21.132-.278a.816.816 0 0 1 .307-.147c.508-.107.977-.215 1.407-.322.42-.107.81-.22 1.172-.337.361-.127.698-.264 1.01-.41.323-.147.64-.318.952-.513.342-.215.63-.44.865-.674.244-.234.449-.444.615-.63.176-.185.322-.336.439-.454.127-.127.245-.19.352-.19.137 0 .225.068.264.205.049.127.073.259.073.396 0 .156-.005.366-.015.63l-.029.834-.029.923c-.01.303-.015.576-.015.82 0 .381.005.904.015 1.568.019.664.039 1.416.058 2.256.03.83.059 1.719.088 2.666l.088 2.842c.039.947.073 1.87.103 2.768.039.889.073 1.7.102 2.432.039.722.073 1.338.103 1.845.029.498.053.83.073.997.391-.41.737-.767 1.04-1.07.303-.302.581-.59.835-.864.254-.283.503-.566.747-.85.254-.293.527-.625.82-.996.166-.224.288-.43.366-.615.079-.186.118-.361.118-.527 0-.39-.21-.694-.63-.909l-1.201-.57c-.196-.108-.293-.245-.293-.411 0-.098.024-.18.073-.249.049-.078.142-.117.278-.117.117 0 .249.039.396.117.146.078.337.17.571.278.234.108.518.225.85.352.332.127.737.24 1.215.337.186.039.406.073.66.102.263.03.532.059.805.088l.791.059c.264.01.484.014.659.014.206 0 .367.03.484.088.117.05.176.142.176.279 0 .107-.054.2-.161.278-.108.068-.293.103-.557.103a9.9 9.9 0 0 0-.762.029c-.244.02-.488.058-.732.117a3.677 3.677 0 0 0-.733.264 4.26 4.26 0 0 0-.747.469 7.796 7.796 0 0 0-.556.468 13.298 13.298 0 0 0-1.231 1.29c-.195.224-.361.439-.498.644.029.215.098.561.205 1.04.117.469.274 1 .469 1.596.195.587.435 1.197.718 1.832.293.625.625 1.196.996 1.713.371.518.791.948 1.26 1.29.468.331.981.498 1.538.498.517 0 .932-.186 1.245-.557.312-.371.469-.864.469-1.48 0-.263-.035-.517-.103-.761a4.1 4.1 0 0 0-.264-.718 3.207 3.207 0 0 0-.381-.615 3.855 3.855 0 0 0-.454-.513 2.644 2.644 0 0 0-.366-.308c-.117-.097-.176-.175-.176-.234 0-.078.054-.117.161-.117.118 0 .279.063.484.19.215.117.41.254.586.41.195.157.381.347.556.572.186.214.347.464.484.747.146.283.259.6.337.952.088.342.132.723.132 1.143 0 .302-.049.659-.147 1.069-.088.41-.254.806-.498 1.186a3.007 3.007 0 0 1-.996.953c-.43.263-.981.395-1.655.395-.908 0-1.719-.21-2.432-.63-.703-.43-1.328-1.01-1.875-1.743-.537-.733-1.001-1.587-1.392-2.564a24.262 24.262 0 0 1-.996-3.105l-.6.66c.019.478.044.995.073 1.552.039.557.083 1.118.132 1.684l.146 1.641c.049.537.093 1.03.132 1.48.049.449.093.84.132 1.172.039.322.073.551.103.688.058.322.131.61.219.864.098.254.225.469.381.645.156.175.357.307.601.395.244.098.551.147.923.147.166 0 .341-.005.527-.015.195-.01.381-.014.557-.014.127 0 .253.004.38.014.127.02.24.049.337.088.098.04.176.093.235.161a.377.377 0 0 1 .102.278c0 .176-.093.328-.278.454-.176.137-.532.206-1.069.206-.274 0-.547-.015-.821-.044-.263-.02-.571-.05-.923-.088-.341-.03-.747-.059-1.215-.088a40.27 40.27 0 0 0-1.67-.03zm18.457-19.351c.078 0 .146.02.205.059.058.039.088.112.088.22 0 .136-.069.253-.205.35-.118.099-.303.22-.557.367-.254.147-.586.376-.996.689a2.39 2.39 0 0 0-.601.615 2.717 2.717 0 0 0-.307.732 4.532 4.532 0 0 0-.132.88c-.01.312-.015.649-.015 1.01.01.732.059 1.45.147 2.153.088.703.2 1.363.337 1.978.136.605.288 1.157.454 1.655.166.488.332.899.498 1.23.342.704.766 1.265 1.274 1.685.508.42 1.123.63 1.846.63.508 0 .947-.122 1.318-.366.381-.244.703-.562.967-.952.264-.4.479-.85.645-1.348a12.32 12.32 0 0 0 .585-3.047c.04-.488.059-.913.059-1.274 0-.967-.078-1.704-.234-2.212-.157-.508-.391-.86-.703-1.055a1.854 1.854 0 0 0-.44-.22 4.805 4.805 0 0 0-.498-.146 5.439 5.439 0 0 0-.469-.117 8.868 8.868 0 0 0-.351-.088c-.215-.05-.366-.113-.454-.19a.436.436 0 0 1-.118-.323c0-.137.044-.244.132-.322a.529.529 0 0 1 .367-.132c.283 0 .664.024 1.142.073.479.049 1.04.073 1.685.073.351 0 .737-.02 1.157-.058.43-.049.845-.103 1.245-.161.4-.069.767-.137 1.099-.205.332-.079.586-.147.761-.205.137-.05.249-.079.337-.088.088-.02.157-.03.205-.03.118 0 .215.03.293.088a.294.294 0 0 1 .118.25.442.442 0 0 1-.074.263.672.672 0 0 1-.19.176c-.225.156-.444.302-.659.44a1.18 1.18 0 0 0-.484.556 3.281 3.281 0 0 0-.205.747c-.049.293-.093.654-.132 1.084l-.102 1.509a92.244 92.244 0 0 1-.132 2.094c-.068.89-.161 1.841-.278 2.857a54.314 54.314 0 0 1-.469 3.179 50.714 50.714 0 0 1-.703 3.398 47.613 47.613 0 0 1-1.011 3.56 19.18 19.18 0 0 1-1.392 3.252c-.527.966-1.118 1.787-1.772 2.46-.654.674-1.362 1.187-2.124 1.538a5.57 5.57 0 0 1-2.417.543 4.709 4.709 0 0 1-1.655-.279 3.759 3.759 0 0 1-1.289-.79 3.464 3.464 0 0 1-.821-1.202 4.044 4.044 0 0 1-.293-1.567c0-.616.088-1.182.264-1.7.186-.507.435-.952.747-1.333.322-.37.698-.659 1.128-.864a3.351 3.351 0 0 1 1.436-.307c.419 0 .786.068 1.098.205.322.136.591.317.806.542.215.224.376.478.483.761.108.293.161.591.161.894 0 .264-.044.508-.131.732a1.617 1.617 0 0 1-.352.6 1.587 1.587 0 0 1-.586.411 1.892 1.892 0 0 1-.762.147c-.332 0-.605-.054-.82-.162a1.758 1.758 0 0 1-.513-.395 2.134 2.134 0 0 1-.337-.528 19.28 19.28 0 0 0-.249-.512 2.113 2.113 0 0 0-.249-.396.43.43 0 0 0-.351-.16.613.613 0 0 0-.425.175 1.672 1.672 0 0 0-.337.454c-.088.195-.156.41-.205.645a3.713 3.713 0 0 0-.073.732c0 .469.083.899.249 1.29.166.39.395.722.688.995a3.16 3.16 0 0 0 1.07.63c.41.156.859.235 1.347.235.821 0 1.538-.186 2.154-.557a6.058 6.058 0 0 0 1.626-1.406 8.743 8.743 0 0 0 1.157-1.875 15.07 15.07 0 0 0 1.201-3.56c.098-.459.161-.762.19-.908.274-1.729.45-3.223.528-4.483.088-1.26.132-2.256.132-2.988 0-.244-.005-.454-.015-.63 0-.185-.005-.342-.015-.468a12.196 12.196 0 0 0-.029-.381 7.59 7.59 0 0 1-.249.644c-.078.195-.171.415-.278.66-.108.234-.23.468-.367.702a4.966 4.966 0 0 1-1.611 1.67 5.31 5.31 0 0 1-1.186.557c-.43.137-.899.205-1.407.205-.869 0-1.621-.18-2.256-.542a5.4 5.4 0 0 1-1.64-1.45 8.862 8.862 0 0 1-1.157-2.08 21.876 21.876 0 0 1-.777-2.461c-.205-.85-.385-1.7-.542-2.549-.146-.85-.293-1.64-.439-2.373-.059-.303-.147-.503-.264-.6a.642.642 0 0 0-.425-.147c-.185 0-.376.02-.571.058-.195.04-.347.06-.454.06a.333.333 0 0 1-.22-.074.257.257 0 0 1-.073-.19c0-.167.098-.279.293-.337.439-.118.83-.23 1.172-.337.351-.108.669-.215.952-.323.293-.107.566-.215.82-.322.254-.117.513-.24.777-.366a19.11 19.11 0 0 0 1.582-.85c.449-.273.84-.512 1.172-.717.332-.206.61-.372.835-.499.234-.127.439-.19.615-.19zm21.74 6.104c2.44 0 3.66 1.28 3.66 3.84v5.44c0 .24-.074.433-.22.58-.134.147-.32.22-.56.22-.24 0-.434-.073-.58-.22-.147-.147-.22-.34-.22-.58v-.96a2.922 2.922 0 0 1-1.16 1.34c-.52.307-1.12.46-1.8.46a4.001 4.001 0 0 1-1.74-.38 3.101 3.101 0 0 1-1.24-1.06 2.617 2.617 0 0 1-.46-1.5c0-.733.186-1.3.56-1.7.373-.413.986-.707 1.84-.88.853-.187 2.04-.28 3.56-.28h.44v-.66c0-.8-.167-1.387-.5-1.76-.32-.373-.847-.56-1.58-.56-.907 0-1.827.247-2.76.74-.36.227-.614.34-.76.34a.512.512 0 0 1-.4-.18.665.665 0 0 1-.16-.46c0-.187.053-.347.16-.48.12-.147.306-.293.56-.44a6.183 6.183 0 0 1 1.58-.62c.6-.16 1.193-.24 1.78-.24zm-.66 8.84c.8 0 1.453-.267 1.96-.8.52-.547.78-1.247.78-2.1v-.58h-.36c-1.174 0-2.067.053-2.68.16-.614.093-1.054.26-1.32.5-.254.227-.38.567-.38 1.02 0 .52.186.953.56 1.3.386.333.866.5 1.44.5zm12.185-8.84c2.333 0 3.5 1.287 3.5 3.86v5.42c0 .253-.073.453-.22.6-.133.133-.327.2-.58.2-.253 0-.453-.067-.6-.2-.147-.147-.22-.347-.22-.6v-5.32c0-.907-.18-1.567-.54-1.98-.347-.413-.907-.62-1.68-.62-.893 0-1.607.273-2.14.82-.533.547-.8 1.287-.8 2.22v4.88c0 .253-.073.453-.22.6-.133.133-.327.2-.58.2-.253 0-.453-.067-.6-.2-.147-.147-.22-.347-.22-.6v-8.44c0-.24.073-.433.22-.58.147-.147.347-.22.6-.22.24 0 .427.073.56.22.147.147.22.333.22.56v1.02a3.22 3.22 0 0 1 1.34-1.36c.573-.32 1.227-.48 1.96-.48zm14.287-4.22c.253 0 .453.073.6.22.147.147.22.333.22.56V30.3c0 .24-.073.433-.22.58-.147.147-.347.22-.6.22s-.453-.073-.6-.22c-.133-.147-.2-.34-.2-.58v-1.08a3.197 3.197 0 0 1-1.3 1.42c-.56.333-1.22.5-1.98.5-.853 0-1.607-.213-2.26-.64-.653-.427-1.16-1.02-1.52-1.78-.36-.773-.54-1.667-.54-2.68 0-1 .18-1.88.54-2.64.36-.76.867-1.347 1.52-1.76.653-.413 1.407-.62 2.26-.62.76 0 1.42.167 1.98.5a3.197 3.197 0 0 1 1.3 1.42v-5.36c0-.24.067-.427.2-.56.147-.147.347-.22.6-.22zm-3.76 13c.947 0 1.673-.32 2.18-.96.52-.653.78-1.573.78-2.76 0-1.187-.26-2.1-.78-2.74-.507-.64-1.233-.96-2.18-.96-.947 0-1.687.32-2.22.96-.52.64-.78 1.54-.78 2.7 0 1.187.26 2.113.78 2.78.533.653 1.273.98 2.22.98zm14.157 1.4a6.429 6.429 0 0 1-1.64-.2c-.48-.16-.773-.307-.88-.44-.267-.32-.4-1.973-.4-4.96 0-3.013.333-7.093 1-12.24.56-4.24 1.867-6.36 3.92-6.36.48 0 .827.267 1.04.8.213.507.32 1 .32 1.48 0 3.467-1.053 7.347-3.16 11.64-.08 2.213-.12 4.147-.12 5.8 0 1.627.147 2.44.44 2.44.453-.027 1.08-.587 1.88-1.68.8-1.12 1.587-2.547 2.36-4.28.8-1.733 1.28-2.6 1.44-2.6.187 0 .28.107.28.32 0 .747-.387 1.933-1.16 3.56-2.107 4.48-3.88 6.72-5.32 6.72zm2.36-21.56c0-.853-.107-1.28-.32-1.28-.8 0-1.387 3.32-1.76 9.96 1.387-3.653 2.08-6.547 2.08-8.68zm14.232 12.68c1.067-.347 1.8-.64 2.2-.88l.96-.6.48-.28c.134-.08.24-.12.32-.12.214 0 .32.12.32.36s-.413.667-1.24 1.28c-.826.587-1.853 1.12-3.08 1.6-.186 2.24-.893 4.053-2.12 5.44-1.226 1.387-2.973 2.08-5.24 2.08-1.653 0-2.92-.653-3.8-1.96-.88-1.333-1.32-2.88-1.32-4.64 0-1.787.52-3.467 1.56-5.04 1.067-1.573 2.427-2.36 4.08-2.36.747-.533 1.627-.8 2.64-.8 1.04 0 2 .547 2.88 1.64.88 1.093 1.334 2.52 1.36 4.28zm-2.6 2.04l-1.44.08c-1.226 0-2.266-.36-3.12-1.08-.853-.747-1.28-1.56-1.28-2.44 0-.88.147-1.64.44-2.28-1.146.907-1.72 2.693-1.72 5.36a8.8 8.8 0 0 0 .8 3.68c.534 1.147 1.374 1.72 2.52 1.72 1.147 0 2.04-.48 2.68-1.44.64-.987 1.014-2.187 1.12-3.6zm-2.48-6.64c-.426 0-.76.2-1 .6-.24.373-.36.787-.36 1.24 0 .987.334 1.787 1 2.4.694.613 1.494.92 2.4.92h.48c-.053-1.307-.28-2.493-.68-3.56-.373-1.067-.986-1.6-1.84-1.6zm12.131 11.52c.96 0 1.8-.493 2.52-1.48.72-1.013 1.253-2.24 1.6-3.68-.96-.293-1.694-.8-2.2-1.52-.507-.747-.76-1.6-.76-2.56s.24-1.8.72-2.52c.506-.72 1.226-1.08 2.16-1.08.56 0 .986.36 1.28 1.08.293.693.44 1.48.44 2.36 0 .88-.067 1.76-.2 2.64.4.16.826.24 1.28.24 1.04 0 2.04-.48 3-1.44.48-.48.8-.72.96-.72.186 0 .28.133.28.4s-.174.587-.52.96c-1.414 1.573-3.2 2.36-5.36 2.36-.507 1.947-1.294 3.587-2.36 4.92-1.067 1.333-2.374 2-3.92 2-.907 0-1.654-.387-2.24-1.16-.987-1.253-1.48-3.093-1.48-5.52 0-.827.066-1.893.2-3.2.133-1.307.28-2.107.44-2.4.186-.293.613-.653 1.28-1.08.693-.427 1.173-.64 1.44-.64.4 0 .6.24.6.72 0 1.36-.347 2.84-1.04 4.44 0 1.893.146 3.52.44 4.88.32 1.333.8 2 1.44 2zm3.64-11.32c-.214 0-.32.44-.32 1.32 0 .88.4 1.72 1.2 2.52.053-.32.08-.64.08-.96 0-1.92-.32-2.88-.96-2.88zm10.224 13.28c-1.493 0-2.68-.56-3.56-1.68a6.21 6.21 0 0 1-1.32-3.88c0-2.907.613-5.107 1.84-6.6 1.227-1.493 2.813-2.24 4.76-2.24.907 0 1.653.253 2.24.76.587.48.88 1.147.88 2 0 1.6-.68 2.947-2.04 4.04-1.333 1.067-2.973 1.627-4.92 1.68.107 1.04.453 1.947 1.04 2.72.613.747 1.32 1.12 2.12 1.12s1.52-.187 2.16-.56c.64-.373 1.227-.907 1.76-1.6 1.12-1.467 2.08-3.133 2.88-5 .213-.48.373-.827.48-1.04.133-.213.267-.32.4-.32.16 0 .24.107.24.32 0 1.333-.813 3.333-2.44 6-1.76 2.853-3.933 4.28-6.52 4.28zm-2.12-6.88c1.573-.267 2.72-.773 3.44-1.52.747-.747 1.12-1.72 1.12-2.92s-.387-1.8-1.16-1.8c-.933 0-1.72.653-2.36 1.96-.64 1.28-.987 2.707-1.04 4.28zm11.879 6.88a6.423 6.423 0 0 1-1.64-.2c-.48-.16-.774-.307-.88-.44-.267-.32-.4-1.973-.4-4.96 0-3.013.333-7.093 1-12.24.56-4.24 1.866-6.36 3.92-6.36.48 0 .826.267 1.04.8.213.507.32 1 .32 1.48 0 3.467-1.054 7.347-3.16 11.64-.08 2.213-.12 4.147-.12 5.8 0 1.627.146 2.44.44 2.44.453-.027 1.08-.587 1.88-1.68.8-1.12 1.586-2.547 2.36-4.28.8-1.733 1.28-2.6 1.44-2.6.186 0 .28.107.28.32 0 .747-.387 1.933-1.16 3.56-2.107 4.48-3.88 6.72-5.32 6.72zm2.36-21.56c0-.853-.107-1.28-.32-1.28-.8 0-1.387 3.32-1.76 9.96 1.386-3.653 2.08-6.547 2.08-8.68zm1.712 17.88l.24-4.48c0-2.853.133-4.413.4-4.68.267-.267.733-.653 1.4-1.16.693-.533 1.187-.8 1.48-.8.32 0 .52.053.6.16.08.107.12.32.12.64 0 1.147-.253 2.307-.76 3.48-.4 2.453-.6 4.467-.6 6.04 0 1.573.187 2.36.56 2.36.64 0 1.373-.56 2.2-1.68.853-1.147 1.72-2.827 2.6-5.04.027-.587.053-1.2.08-1.84a32.22 32.22 0 0 1 .08-1.44c.027-.32.04-.547.04-.68.027-.133.4-.493 1.12-1.08.72-.613 1.267-.92 1.64-.92.4 0 .6.507.6 1.52 0 .267-.08.787-.24 1.56-.133.773-.293 1.333-.48 1.68a91.285 91.285 0 0 0-.44 4.96c2.613-3.307 4-5.053 4.16-5.24.187-.187.347-.28.48-.28.267 0 .4.133.4.4 0 .16-.053.333-.16.52-.853 1.253-2.533 3.453-5.04 6.6-.16 3.173-.267 5.333-.32 6.48-.133 3.387-.613 5.76-1.44 7.12-.8 1.387-2.24 2.08-4.32 2.08-.907 0-1.76-.28-2.56-.84-.773-.533-1.16-1.48-1.16-2.84 0-1.333.507-2.707 1.52-4.12 1.04-1.413 2.92-3.587 5.64-6.52l.24-4.36c-.907 2-1.8 3.52-2.68 4.56-.88 1.013-1.853 1.52-2.92 1.52s-1.747-.267-2.04-.8c-.293-.533-.44-1.493-.44-2.88zm7.72 3.84c-3.04 3.28-4.56 5.907-4.56 7.88 0 .907.16 1.653.48 2.24.32.587.76.88 1.32.88.853 0 1.453-.467 1.8-1.4.347-.933.6-2.827.76-5.68l.2-3.92zm16.94-.22c-.906 0-1.713-.207-2.42-.62-.693-.413-1.233-1-1.62-1.76-.373-.76-.56-1.64-.56-2.64 0-1 .194-1.887.58-2.66a4.43 4.43 0 0 1 1.66-1.8c.707-.427 1.52-.64 2.44-.64.507 0 1.007.073 1.5.22a3.99 3.99 0 0 1 1.32.6c.24.16.407.32.5.48.107.147.16.313.16.5s-.053.34-.16.46a.455.455 0 0 1-.38.18.677.677 0 0 1-.3-.08 2.682 2.682 0 0 1-.28-.16.943.943 0 0 0-.14-.1 6.167 6.167 0 0 0-1-.54c-.306-.133-.686-.2-1.14-.2-.973 0-1.733.333-2.28 1-.533.653-.8 1.567-.8 2.74 0 1.173.267 2.08.8 2.72.547.64 1.307.96 2.28.96.454 0 .84-.067 1.16-.2a5.22 5.22 0 0 0 1-.54c.147-.093.287-.173.42-.24a.797.797 0 0 1 .34-.1c.147 0 .267.06.36.18.107.12.16.273.16.46a.871.871 0 0 1-.14.48c-.093.133-.266.287-.52.46-.373.253-.826.46-1.36.62a5.79 5.79 0 0 1-1.58.22zm9.591 0c-.92 0-1.734-.207-2.44-.62-.694-.413-1.234-1-1.62-1.76-.374-.773-.56-1.667-.56-2.68 0-1.013.186-1.9.56-2.66.386-.773.926-1.367 1.62-1.78.706-.413 1.52-.62 2.44-.62.92 0 1.733.207 2.44.62.706.413 1.246 1.007 1.62 1.78.386.76.58 1.647.58 2.66 0 1.013-.194 1.907-.58 2.68a4.07 4.07 0 0 1-1.62 1.76c-.707.413-1.52.62-2.44.62zm0-1.34c.96 0 1.693-.313 2.2-.94.52-.64.78-1.567.78-2.78 0-1.187-.26-2.1-.78-2.74-.52-.653-1.254-.98-2.2-.98-.947 0-1.68.327-2.2.98-.52.64-.78 1.553-.78 2.74 0 1.2.253 2.12.76 2.76.52.64 1.26.96 2.22.96zm11.954-8.78c2.333 0 3.5 1.287 3.5 3.86v5.42c0 .253-.074.453-.22.6-.134.133-.327.2-.58.2-.254 0-.454-.067-.6-.2-.147-.147-.22-.347-.22-.6v-5.32c0-.907-.18-1.567-.54-1.98-.347-.413-.907-.62-1.68-.62-.894 0-1.607.273-2.14.82-.534.547-.8 1.287-.8 2.22v4.88c0 .253-.074.453-.22.6-.134.133-.327.2-.58.2-.254 0-.454-.067-.6-.2-.147-.147-.22-.347-.22-.6v-8.44c0-.24.073-.433.22-.58.146-.147.346-.22.6-.22.24 0 .426.073.56.22.146.147.22.333.22.56v1.02c.32-.6.766-1.053 1.34-1.36.573-.32 1.226-.48 1.96-.48zm9.747 10.12c-.614 0-1.2-.073-1.76-.22a5.341 5.341 0 0 1-1.46-.62c-.24-.16-.414-.307-.52-.44a.942.942 0 0 1-.14-.52c0-.173.046-.313.14-.42.106-.12.24-.18.4-.18.16 0 .393.1.7.3.4.24.793.433 1.18.58.4.133.893.2 1.48.2.72 0 1.28-.127 1.68-.38.4-.253.6-.62.6-1.1 0-.293-.074-.527-.22-.7-.147-.187-.4-.347-.76-.48-.36-.147-.887-.293-1.58-.44-1.174-.253-2.014-.593-2.52-1.02-.507-.427-.76-1.007-.76-1.74 0-.573.16-1.08.48-1.52.32-.44.76-.787 1.32-1.04.573-.253 1.22-.38 1.94-.38.52 0 1.02.073 1.5.22.493.133.926.327 1.3.58.453.32.68.653.68 1 0 .173-.054.32-.16.44a.494.494 0 0 1-.38.18c-.16 0-.4-.113-.72-.34a6.367 6.367 0 0 0-1.06-.56c-.334-.133-.747-.2-1.24-.2-.627 0-1.134.14-1.52.42-.374.28-.56.653-.56 1.12 0 .293.066.533.2.72.146.173.38.333.7.48.333.133.806.267 1.42.4.906.2 1.606.42 2.1.66.506.24.866.533 1.08.88.213.347.32.787.32 1.32 0 .84-.354 1.52-1.06 2.04-.707.507-1.64.76-2.8.76zm10.369 0c-.92 0-1.733-.207-2.44-.62-.693-.413-1.233-1-1.62-1.76-.373-.773-.56-1.667-.56-2.68 0-1.013.187-1.9.56-2.66.387-.773.927-1.367 1.62-1.78.707-.413 1.52-.62 2.44-.62.92 0 1.733.207 2.44.62.707.413 1.247 1.007 1.62 1.78.387.76.58 1.647.58 2.66 0 1.013-.193 1.907-.58 2.68a4.059 4.059 0 0 1-1.62 1.76c-.707.413-1.52.62-2.44.62zm0-1.34c.96 0 1.693-.313 2.2-.94.52-.64.78-1.567.78-2.78 0-1.187-.26-2.1-.78-2.74-.52-.653-1.253-.98-2.2-.98-.947 0-1.68.327-2.2.98-.52.64-.78 1.553-.78 2.74 0 1.2.253 2.12.76 2.76.52.64 1.26.96 2.22.96zm7.874 1.3a.906.906 0 0 1-.6-.2c-.147-.147-.22-.347-.22-.6V17.6c0-.253.073-.447.22-.58.16-.147.36-.22.6-.22.227 0 .413.073.56.22.16.133.24.327.24.58v12.7c0 .253-.08.453-.24.6a.8.8 0 0 1-.56.2zm11.368-2.36c.147 0 .274.06.38.18.107.12.16.273.16.46 0 .333-.233.64-.7.92-.48.28-.986.493-1.52.64-.533.133-1.053.2-1.56.2-1.506 0-2.7-.447-3.58-1.34-.866-.893-1.3-2.127-1.3-3.7 0-1 .194-1.88.58-2.64.387-.773.927-1.373 1.62-1.8.707-.427 1.507-.64 2.4-.64 1.267 0 2.274.413 3.02 1.24.747.827 1.12 1.947 1.12 3.36 0 .267-.053.46-.16.58-.106.12-.28.18-.52.18h-6.44c.12 2.293 1.207 3.44 3.26 3.44.52 0 .967-.067 1.34-.2.374-.147.774-.34 1.2-.58.347-.2.58-.3.7-.3zm-3.5-6.46c-.853 0-1.54.267-2.06.8-.506.533-.806 1.287-.9 2.26h5.66c-.026-.987-.273-1.74-.74-2.26-.466-.533-1.12-.8-1.96-.8zm22.503-1.26c2.16 0 3.24 1.287 3.24 3.86v5.42c0 .253-.073.453-.22.6-.146.133-.34.2-.58.2a.906.906 0 0 1-.6-.2c-.146-.147-.22-.347-.22-.6v-5.38c0-.893-.16-1.54-.48-1.94-.32-.4-.82-.6-1.5-.6-.813 0-1.453.273-1.92.82-.466.547-.7 1.287-.7 2.22v4.88c0 .253-.08.453-.24.6-.146.133-.34.2-.58.2-.24 0-.433-.067-.58-.2-.146-.147-.22-.347-.22-.6v-5.38c0-.893-.16-1.54-.48-1.94-.32-.4-.826-.6-1.52-.6-.8 0-1.44.273-1.92.82-.466.547-.7 1.287-.7 2.22v4.88c0 .253-.073.453-.22.6-.146.133-.34.2-.58.2a.906.906 0 0 1-.6-.2c-.146-.147-.22-.347-.22-.6v-8.44c0-.24.074-.433.22-.58.16-.147.36-.22.6-.22.227 0 .414.073.56.22.147.133.22.32.22.56v.96c.294-.573.7-1.013 1.22-1.32.52-.307 1.12-.46 1.8-.46 1.52 0 2.514.64 2.98 1.92a3.242 3.242 0 0 1 1.28-1.4c.574-.347 1.227-.52 1.96-.52zm13.732 7.72c.146 0 .273.06.38.18a.67.67 0 0 1 .16.46c0 .333-.234.64-.7.92-.48.28-.987.493-1.52.64a6.43 6.43 0 0 1-1.56.2c-1.507 0-2.7-.447-3.58-1.34-.867-.893-1.3-2.127-1.3-3.7 0-1 .193-1.88.58-2.64.386-.773.926-1.373 1.62-1.8.706-.427 1.506-.64 2.4-.64 1.266 0 2.273.413 3.02 1.24.746.827 1.12 1.947 1.12 3.36 0 .267-.054.46-.16.58-.107.12-.28.18-.52.18h-6.44c.12 2.293 1.206 3.44 3.26 3.44.52 0 .966-.067 1.34-.2.373-.147.773-.34 1.2-.58.346-.2.58-.3.7-.3zm-3.5-6.46c-.854 0-1.54.267-2.06.8-.507.533-.807 1.287-.9 2.26h5.66c-.027-.987-.274-1.74-.74-2.26-.467-.533-1.12-.8-1.96-.8zm9.787 8.86c-.614 0-1.2-.073-1.76-.22a5.341 5.341 0 0 1-1.46-.62c-.24-.16-.414-.307-.52-.44a.942.942 0 0 1-.14-.52c0-.173.046-.313.14-.42.106-.12.24-.18.4-.18.16 0 .393.1.7.3.4.24.793.433 1.18.58.4.133.893.2 1.48.2.72 0 1.28-.127 1.68-.38.4-.253.6-.62.6-1.1 0-.293-.074-.527-.22-.7-.147-.187-.4-.347-.76-.48-.36-.147-.887-.293-1.58-.44-1.174-.253-2.014-.593-2.52-1.02-.507-.427-.76-1.007-.76-1.74 0-.573.16-1.08.48-1.52.32-.44.76-.787 1.32-1.04.573-.253 1.22-.38 1.94-.38.52 0 1.02.073 1.5.22.493.133.926.327 1.3.58.453.32.68.653.68 1 0 .173-.054.32-.16.44a.494.494 0 0 1-.38.18c-.16 0-.4-.113-.72-.34a6.367 6.367 0 0 0-1.06-.56c-.334-.133-.747-.2-1.24-.2-.627 0-1.134.14-1.52.42-.374.28-.56.653-.56 1.12 0 .293.066.533.2.72.146.173.38.333.7.48.333.133.806.267 1.42.4.906.2 1.606.42 2.1.66.506.24.866.533 1.08.88.213.347.32.787.32 1.32 0 .84-.354 1.52-1.06 2.04-.707.507-1.64.76-2.8.76zm9.609 0a6.92 6.92 0 0 1-1.76-.22 5.354 5.354 0 0 1-1.46-.62c-.24-.16-.413-.307-.52-.44a.95.95 0 0 1-.14-.52c0-.173.047-.313.14-.42.107-.12.24-.18.4-.18.16 0 .393.1.7.3.4.24.793.433 1.18.58.4.133.893.2 1.48.2.72 0 1.28-.127 1.68-.38.4-.253.6-.62.6-1.1 0-.293-.073-.527-.22-.7-.147-.187-.4-.347-.76-.48-.36-.147-.887-.293-1.58-.44-1.173-.253-2.013-.593-2.52-1.02-.507-.427-.76-1.007-.76-1.74 0-.573.16-1.08.48-1.52.32-.44.76-.787 1.32-1.04.573-.253 1.22-.38 1.94-.38.52 0 1.02.073 1.5.22.493.133.927.327 1.3.58.453.32.68.653.68 1 0 .173-.053.32-.16.44a.493.493 0 0 1-.38.18c-.16 0-.4-.113-.72-.34a6.328 6.328 0 0 0-1.06-.56c-.333-.133-.747-.2-1.24-.2-.627 0-1.133.14-1.52.42-.373.28-.56.653-.56 1.12 0 .293.067.533.2.72.147.173.38.333.7.48.333.133.807.267 1.42.4.907.2 1.607.42 2.1.66.507.24.867.533 1.08.88.213.347.32.787.32 1.32 0 .84-.353 1.52-1.06 2.04-.707.507-1.64.76-2.8.76zm10.309-10.12c2.44 0 3.66 1.28 3.66 3.84v5.44c0 .24-.073.433-.22.58-.133.147-.32.22-.56.22a.785.785 0 0 1-.58-.22.787.787 0 0 1-.22-.58v-.96a2.917 2.917 0 0 1-1.16 1.34c-.52.307-1.12.46-1.8.46a4.008 4.008 0 0 1-1.74-.38 3.108 3.108 0 0 1-1.24-1.06 2.625 2.625 0 0 1-.46-1.5c0-.733.187-1.3.56-1.7.374-.413.987-.707 1.84-.88.854-.187 2.04-.28 3.56-.28h.44v-.66c0-.8-.166-1.387-.5-1.76-.32-.373-.846-.56-1.58-.56-.906 0-1.826.247-2.76.74-.36.227-.613.34-.76.34a.513.513 0 0 1-.4-.18.67.67 0 0 1-.16-.46c0-.187.054-.347.16-.48.12-.147.307-.293.56-.44a6.212 6.212 0 0 1 1.58-.62 6.89 6.89 0 0 1 1.78-.24zm-.66 8.84c.8 0 1.454-.267 1.96-.8.52-.547.78-1.247.78-2.1v-.58h-.36c-1.173 0-2.066.053-2.68.16-.613.093-1.053.26-1.32.5-.253.227-.38.567-.38 1.02 0 .52.187.953.56 1.3.387.333.867.5 1.44.5zm15.186-8.8c.253 0 .453.073.6.22.146.147.22.34.22.58v8.48c0 1.453-.374 2.547-1.12 3.28-.747.747-1.854 1.12-3.32 1.12-1.427 0-2.614-.28-3.56-.84-.48-.267-.72-.573-.72-.92 0-.187.046-.34.14-.46.106-.12.24-.18.4-.18.133 0 .373.093.72.28.466.24.926.433 1.38.58.453.147.993.22 1.62.22.946 0 1.66-.253 2.14-.76.48-.493.72-1.22.72-2.18v-1.72a3.04 3.04 0 0 1-1.3 1.44c-.574.333-1.254.5-2.04.5-.854 0-1.614-.2-2.28-.6-.654-.4-1.167-.967-1.54-1.7-.36-.733-.54-1.58-.54-2.54s.18-1.807.54-2.54c.373-.733.886-1.3 1.54-1.7.666-.4 1.426-.6 2.28-.6.773 0 1.446.167 2.02.5a3.203 3.203 0 0 1 1.3 1.42v-1.08c0-.24.066-.433.2-.58.146-.147.346-.22.6-.22zm-3.8 8.3c.933 0 1.666-.307 2.2-.92.533-.627.8-1.487.8-2.58 0-1.08-.267-1.927-.8-2.54-.52-.627-1.254-.94-2.2-.94-.947 0-1.694.313-2.24.94-.534.613-.8 1.46-.8 2.54 0 1.093.266 1.953.8 2.58.546.613 1.293.92 2.24.92zm15.159-.62c.146 0 .273.06.38.18a.67.67 0 0 1 .16.46c0 .333-.234.64-.7.92-.48.28-.987.493-1.52.64a6.43 6.43 0 0 1-1.56.2c-1.507 0-2.7-.447-3.58-1.34-.867-.893-1.3-2.127-1.3-3.7 0-1 .193-1.88.58-2.64.386-.773.926-1.373 1.62-1.8.706-.427 1.506-.64 2.4-.64 1.266 0 2.273.413 3.02 1.24.746.827 1.12 1.947 1.12 3.36 0 .267-.054.46-.16.58-.107.12-.28.18-.52.18h-6.44c.12 2.293 1.206 3.44 3.26 3.44.52 0 .966-.067 1.34-.2.373-.147.773-.34 1.2-.58.346-.2.58-.3.7-.3zm-3.5-6.46c-.854 0-1.54.267-2.06.8-.507.533-.807 1.287-.9 2.26h5.66c-.027-.987-.274-1.74-.74-2.26-.467-.533-1.12-.8-1.96-.8zm9.786 8.86a6.92 6.92 0 0 1-1.76-.22 5.368 5.368 0 0 1-1.46-.62c-.24-.16-.413-.307-.52-.44a.95.95 0 0 1-.14-.52c0-.173.047-.313.14-.42.107-.12.24-.18.4-.18.16 0 .394.1.7.3.4.24.794.433 1.18.58.4.133.894.2 1.48.2.72 0 1.28-.127 1.68-.38.4-.253.6-.62.6-1.1 0-.293-.073-.527-.22-.7-.146-.187-.4-.347-.76-.48-.36-.147-.886-.293-1.58-.44-1.173-.253-2.013-.593-2.52-1.02-.506-.427-.76-1.007-.76-1.74 0-.573.16-1.08.48-1.52.32-.44.76-.787 1.32-1.04.574-.253 1.22-.38 1.94-.38.52 0 1.02.073 1.5.22.494.133.927.327 1.3.58.454.32.68.653.68 1 0 .173-.053.32-.16.44a.491.491 0 0 1-.38.18c-.16 0-.4-.113-.72-.34a6.29 6.29 0 0 0-1.06-.56c-.333-.133-.746-.2-1.24-.2-.626 0-1.133.14-1.52.42-.373.28-.56.653-.56 1.12 0 .293.067.533.2.72.147.173.38.333.7.48.334.133.807.267 1.42.4.907.2 1.607.42 2.1.66.507.24.867.533 1.08.88.214.347.32.787.32 1.32 0 .84-.353 1.52-1.06 2.04-.706.507-1.64.76-2.8.76zm15.786-12.96c-.707.053-1.24.28-1.6.68-.36.387-.54.973-.54 1.76v.64h2.22c.227 0 .4.06.52.18s.18.28.18.48c0 .2-.06.353-.18.46-.12.107-.293.16-.52.16h-2.22v7.76c0 .253-.08.453-.24.6a.8.8 0 0 1-.56.2.906.906 0 0 1-.6-.2c-.147-.147-.22-.347-.22-.6v-7.76h-1.34c-.227 0-.407-.053-.54-.16a.623.623 0 0 1-.18-.46c0-.2.06-.36.18-.48.133-.12.313-.18.54-.18h1.34v-.36c0-1.2.3-2.14.9-2.82.6-.693 1.46-1.08 2.58-1.16l.52-.04c.347-.027.593.007.74.1.16.093.24.26.24.5 0 .387-.233.607-.7.66l-.52.04zm7.083 2.88c.56-.04.84.187.84.68 0 .213-.06.387-.18.52-.12.12-.327.193-.62.22l-.6.06c-.894.08-1.56.4-2 .96-.427.547-.64 1.193-.64 1.94v4.86c0 .267-.074.467-.22.6-.147.133-.34.2-.58.2a.906.906 0 0 1-.6-.2c-.147-.147-.22-.347-.22-.6v-8.44c0-.253.08-.447.24-.58a.827.827 0 0 1 .58-.22c.213 0 .393.073.54.22.146.133.22.32.22.56v1.12c.28-.587.673-1.033 1.18-1.34a4.095 4.095 0 0 1 1.78-.54l.28-.02zm6.075 10.08c-.92 0-1.733-.207-2.44-.62-.693-.413-1.233-1-1.62-1.76-.373-.773-.56-1.667-.56-2.68 0-1.013.187-1.9.56-2.66.387-.773.927-1.367 1.62-1.78.707-.413 1.52-.62 2.44-.62.92 0 1.733.207 2.44.62.707.413 1.247 1.007 1.62 1.78.387.76.58 1.647.58 2.66 0 1.013-.193 1.907-.58 2.68a4.059 4.059 0 0 1-1.62 1.76c-.707.413-1.52.62-2.44.62zm0-1.34c.96 0 1.693-.313 2.2-.94.52-.64.78-1.567.78-2.78 0-1.187-.26-2.1-.78-2.74-.52-.653-1.253-.98-2.2-.98-.947 0-1.68.327-2.2.98-.52.64-.78 1.553-.78 2.74 0 1.2.253 2.12.76 2.76.52.64 1.26.96 2.22.96zm17.894-8.78c2.16 0 3.24 1.287 3.24 3.86v5.42c0 .253-.074.453-.22.6-.147.133-.34.2-.58.2a.906.906 0 0 1-.6-.2c-.147-.147-.22-.347-.22-.6v-5.38c0-.893-.16-1.54-.48-1.94-.32-.4-.82-.6-1.5-.6-.814 0-1.454.273-1.92.82-.467.547-.7 1.287-.7 2.22v4.88c0 .253-.08.453-.24.6-.147.133-.34.2-.58.2-.24 0-.434-.067-.58-.2-.147-.147-.22-.347-.22-.6v-5.38c0-.893-.16-1.54-.48-1.94-.32-.4-.827-.6-1.52-.6-.8 0-1.44.273-1.92.82-.467.547-.7 1.287-.7 2.22v4.88c0 .253-.074.453-.22.6-.147.133-.34.2-.58.2a.906.906 0 0 1-.6-.2c-.147-.147-.22-.347-.22-.6v-8.44c0-.24.073-.433.22-.58.16-.147.36-.22.6-.22a.76.76 0 0 1 .56.22c.146.133.22.32.22.56v.96c.293-.573.7-1.013 1.22-1.32.52-.307 1.12-.46 1.8-.46 1.52 0 2.513.64 2.98 1.92a3.236 3.236 0 0 1 1.28-1.4c.573-.347 1.226-.52 1.96-.52zm15.327 0c2.44 0 3.66 1.28 3.66 3.84v5.44c0 .24-.073.433-.22.58-.133.147-.32.22-.56.22a.785.785 0 0 1-.58-.22.787.787 0 0 1-.22-.58v-.96a2.917 2.917 0 0 1-1.16 1.34c-.52.307-1.12.46-1.8.46a4.008 4.008 0 0 1-1.74-.38 3.108 3.108 0 0 1-1.24-1.06 2.625 2.625 0 0 1-.46-1.5c0-.733.187-1.3.56-1.7.374-.413.987-.707 1.84-.88.854-.187 2.04-.28 3.56-.28h.44v-.66c0-.8-.166-1.387-.5-1.76-.32-.373-.846-.56-1.58-.56-.906 0-1.826.247-2.76.74-.36.227-.613.34-.76.34a.513.513 0 0 1-.4-.18.67.67 0 0 1-.16-.46c0-.187.054-.347.16-.48.12-.147.307-.293.56-.44a6.212 6.212 0 0 1 1.58-.62 6.89 6.89 0 0 1 1.78-.24zm-.66 8.84c.8 0 1.454-.267 1.96-.8.52-.547.78-1.247.78-2.1v-.58h-.36c-1.173 0-2.066.053-2.68.16-.613.093-1.053.26-1.32.5-.253.227-.38.567-.38 1.02 0 .52.187.953.56 1.3.387.333.867.5 1.44.5zm12.106-8.8c.56-.04.84.187.84.68 0 .213-.06.387-.18.52-.12.12-.327.193-.62.22l-.6.06c-.894.08-1.56.4-2 .96-.427.547-.64 1.193-.64 1.94v4.86c0 .267-.074.467-.22.6-.147.133-.34.2-.58.2a.906.906 0 0 1-.6-.2c-.147-.147-.22-.347-.22-.6v-8.44c0-.253.08-.447.24-.58a.827.827 0 0 1 .58-.22c.213 0 .393.073.54.22.146.133.22.32.22.56v1.12c.28-.587.673-1.033 1.18-1.34a4.095 4.095 0 0 1 1.78-.54l.28-.02zm6.075 10.08c-.92 0-1.733-.207-2.44-.62-.693-.413-1.233-1-1.62-1.76-.373-.773-.56-1.667-.56-2.68 0-1.013.187-1.9.56-2.66.387-.773.927-1.367 1.62-1.78.707-.413 1.52-.62 2.44-.62.92 0 1.733.207 2.44.62.707.413 1.247 1.007 1.62 1.78.387.76.58 1.647.58 2.66 0 1.013-.193 1.907-.58 2.68a4.059 4.059 0 0 1-1.62 1.76c-.707.413-1.52.62-2.44.62zm0-1.34c.96 0 1.693-.313 2.2-.94.52-.64.78-1.567.78-2.78 0-1.187-.26-2.1-.78-2.74-.52-.653-1.253-.98-2.2-.98-.947 0-1.68.327-2.2.98-.52.64-.78 1.553-.78 2.74 0 1.2.253 2.12.76 2.76.52.64 1.26.96 2.22.96zm14.454-8.74c.253 0 .447.073.58.22.147.147.22.34.22.58v8.46a.757.757 0 0 1-.22.56c-.133.147-.327.22-.58.22-.24 0-.433-.067-.58-.2a.802.802 0 0 1-.2-.56v-1a3.156 3.156 0 0 1-1.3 1.34c-.547.307-1.167.46-1.86.46-1.16 0-2.033-.32-2.62-.96-.587-.653-.88-1.613-.88-2.88v-5.44c0-.24.073-.433.22-.58.147-.147.347-.22.6-.22s.447.073.58.22c.147.147.22.34.22.58v5.4c0 .867.173 1.507.52 1.92.347.4.893.6 1.64.6.853 0 1.54-.273 2.06-.82.52-.56.78-1.293.78-2.2v-4.9c0-.24.073-.433.22-.58.147-.147.347-.22.6-.22zm8.711-.04c2.333 0 3.5 1.287 3.5 3.86v5.42c0 .253-.073.453-.22.6-.133.133-.327.2-.58.2-.253 0-.453-.067-.6-.2-.147-.147-.22-.347-.22-.6v-5.32c0-.907-.18-1.567-.54-1.98-.347-.413-.907-.62-1.68-.62-.893 0-1.607.273-2.14.82-.533.547-.8 1.287-.8 2.22v4.88c0 .253-.073.453-.22.6-.133.133-.327.2-.58.2-.253 0-.453-.067-.6-.2-.147-.147-.22-.347-.22-.6v-8.44c0-.24.073-.433.22-.58.147-.147.347-.22.6-.22.24 0 .427.073.56.22.147.147.22.333.22.56v1.02a3.22 3.22 0 0 1 1.34-1.36c.573-.32 1.227-.48 1.96-.48zm14.287-4.22c.253 0 .453.073.6.22.147.147.22.333.22.56V30.3c0 .24-.073.433-.22.58-.147.147-.347.22-.6.22s-.453-.073-.6-.22c-.133-.147-.2-.34-.2-.58v-1.08a3.197 3.197 0 0 1-1.3 1.42c-.56.333-1.22.5-1.98.5-.853 0-1.607-.213-2.26-.64-.653-.427-1.16-1.02-1.52-1.78-.36-.773-.54-1.667-.54-2.68 0-1 .18-1.88.54-2.64.36-.76.867-1.347 1.52-1.76.653-.413 1.407-.62 2.26-.62.76 0 1.42.167 1.98.5a3.197 3.197 0 0 1 1.3 1.42v-5.36c0-.24.067-.427.2-.56.147-.147.347-.22.6-.22zm-3.76 13c.947 0 1.673-.32 2.18-.96.52-.653.78-1.573.78-2.76 0-1.187-.26-2.1-.78-2.74-.507-.64-1.233-.96-2.18-.96-.947 0-1.687.32-2.22.96-.52.64-.78 1.54-.78 2.7 0 1.187.26 2.113.78 2.78.533.653 1.273.98 2.22.98zm17.237.02c.467.04.7.253.7.64 0 .227-.087.4-.26.52-.16.107-.407.147-.74.12l-.54-.04c-1.067-.08-1.853-.4-2.36-.96-.507-.56-.76-1.407-.76-2.54v-5.02h-1.34c-.227 0-.407-.053-.54-.16a.623.623 0 0 1-.18-.46c0-.2.06-.36.18-.48.133-.12.313-.18.54-.18h1.34V19c0-.253.073-.447.22-.58.147-.147.347-.22.6-.22.24 0 .433.073.58.22.147.133.22.327.22.58v2.26h2.22c.213 0 .38.06.5.18.133.12.2.28.2.48 0 .187-.067.34-.2.46-.12.107-.287.16-.5.16h-2.22v5.1c0 .733.147 1.267.44 1.6.307.32.76.5 1.36.54l.54.04zm7.217-8.8c1.146 0 2.013.327 2.6.98.586.64.88 1.6.88 2.88v5.42c0 .253-.074.453-.22.6-.147.133-.34.2-.58.2-.254 0-.454-.067-.6-.2-.147-.147-.22-.347-.22-.6v-5.38c0-.867-.18-1.507-.54-1.92-.347-.413-.907-.62-1.68-.62-.894 0-1.607.273-2.14.82-.534.547-.8 1.287-.8 2.22v4.88c0 .253-.074.453-.22.6-.134.133-.327.2-.58.2-.254 0-.454-.067-.6-.2-.147-.147-.22-.347-.22-.6V17.58c0-.227.073-.413.22-.56.16-.147.36-.22.6-.22.253 0 .446.073.58.22.146.133.22.32.22.56v5.24a3.24 3.24 0 0 1 1.34-1.34c.573-.307 1.226-.46 1.96-.46zm13.987 7.72c.147 0 .273.06.38.18.107.12.16.273.16.46 0 .333-.233.64-.7.92-.48.28-.987.493-1.52.64-.533.133-1.053.2-1.56.2-1.507 0-2.7-.447-3.58-1.34-.867-.893-1.3-2.127-1.3-3.7 0-1 .193-1.88.58-2.64.387-.773.927-1.373 1.62-1.8.707-.427 1.507-.64 2.4-.64 1.267 0 2.273.413 3.02 1.24.747.827 1.12 1.947 1.12 3.36 0 .267-.053.46-.16.58-.107.12-.28.18-.52.18h-6.44c.12 2.293 1.207 3.44 3.26 3.44.52 0 .967-.067 1.34-.2.373-.147.773-.34 1.2-.58.347-.2.58-.3.7-.3zm-3.5-6.46c-.853 0-1.54.267-2.06.8-.507.533-.807 1.287-.9 2.26h5.66c-.027-.987-.273-1.74-.74-2.26-.467-.533-1.12-.8-1.96-.8zm24.983-.7c.133-.32.353-.48.66-.48.2 0 .38.067.54.2.16.133.24.3.24.5 0 .093-.02.193-.06.3l-3.32 8.4a1 1 0 0 1-.36.42.912.912 0 0 1-.5.14.98.98 0 0 1-.5-.14 1.053 1.053 0 0 1-.34-.42l-2.76-7.02-2.74 7.02a.874.874 0 0 1-.34.42c-.16.093-.333.14-.52.14a.98.98 0 0 1-.5-.14 1 1 0 0 1-.36-.42l-3.32-8.38a.682.682 0 0 1 .2-.82.955.955 0 0 1 .6-.22c.32 0 .547.16.68.48l2.74 7.38 2.82-7.32a.973.973 0 0 1 .32-.4c.147-.093.3-.14.46-.14.173 0 .327.047.46.14a.799.799 0 0 1 .32.4l2.82 7.3 2.76-7.34zm10.939 7.16c.147 0 .273.06.38.18.107.12.16.273.16.46 0 .333-.233.64-.7.92-.48.28-.987.493-1.52.64-.533.133-1.053.2-1.56.2-1.507 0-2.7-.447-3.58-1.34-.867-.893-1.3-2.127-1.3-3.7 0-1 .193-1.88.58-2.64.387-.773.927-1.373 1.62-1.8.707-.427 1.507-.64 2.4-.64 1.267 0 2.273.413 3.02 1.24.747.827 1.12 1.947 1.12 3.36 0 .267-.053.46-.16.58-.107.12-.28.18-.52.18h-6.44c.12 2.293 1.207 3.44 3.26 3.44.52 0 .967-.067 1.34-.2.373-.147.773-.34 1.2-.58.347-.2.58-.3.7-.3zm-3.5-6.46c-.853 0-1.54.267-2.06.8-.507.533-.807 1.287-.9 2.26h5.66c-.027-.987-.273-1.74-.74-2.26-.467-.533-1.12-.8-1.96-.8zm11.407-1.26c.853 0 1.606.207 2.26.62.653.413 1.16 1 1.52 1.76.36.76.54 1.64.54 2.64 0 1.013-.18 1.907-.54 2.68-.36.76-.867 1.353-1.52 1.78-.654.427-1.407.64-2.26.64-.76 0-1.427-.167-2-.5a3.23 3.23 0 0 1-1.28-1.42v1.08c0 .24-.074.433-.22.58-.134.147-.327.22-.58.22-.254 0-.454-.073-.6-.22-.147-.147-.22-.34-.22-.58V17.58c0-.227.073-.413.22-.56.146-.147.346-.22.6-.22.253 0 .446.073.58.22.146.133.22.32.22.56v5.36a3.23 3.23 0 0 1 1.28-1.42c.573-.333 1.24-.5 2-.5zm-.32 8.78c.946 0 1.68-.327 2.2-.98.52-.667.78-1.593.78-2.78 0-1.16-.26-2.06-.78-2.7-.52-.64-1.254-.96-2.2-.96-.947 0-1.68.32-2.2.96-.507.64-.76 1.553-.76 2.74 0 1.187.253 2.107.76 2.76.52.64 1.253.96 2.2.96z" fill="#fff"/></svg>