<?xml version="1.0" encoding="utf-8"?>
<!-- Generator: Adobe Illustrator 22.0.1, SVG Export Plug-In . SVG Version: 6.00 Build 0)  -->
<svg version="1.1" xmlns="http://www.w3.org/2000/svg" xmlns:xlink="http://www.w3.org/1999/xlink" x="0px" y="0px"
	 viewBox="0 0 303.4 50" style="enable-background:new 0 0 303.4 50;" xml:space="preserve">
<style type="text/css">
	.st0{display:none;}
	.st1{display:inline;}
	.st2{fill:#FFFFFF;}
</style>
<g id="Layer_2" class="st0">
	<rect class="st1" width="303.4" height="50"/>
</g>
<g id="Layer_1">
	<defs>
		<path id="SVGID_1_" d="M25.9,35c0.2,0.9,0.3,1.9,0.3,3.2c0,1.2-0.1,2.3-0.3,3.2h-3.2c0.2,0.9,0.3,1.9,0.3,3.2
			c0,1.2-0.1,2.3-0.3,3.2h-16c-0.2-0.9-0.3-2-0.3-3.2c0-1.3,0.1-2.3,0.3-3.2H3.5c-0.2-0.9-0.3-2-0.3-3.2c0-1.3,0.1-2.3,0.3-3.2H0.3
			C0.1,34,0,33,0,31.7s0.1-2.3,0.3-3.2h3.2c-0.2-0.9-0.3-2-0.3-3.2c0-1.3,0.1-2.3,0.3-3.2h3.2c-0.2-0.9-0.3-2-0.3-3.2
			c0-1.3,0.1-2.3,0.3-3.2h16c0.2,0.9,0.3,1.9,0.3,3.2c0,1.2-0.1,2.3-0.3,3.2h3.2c0.2,0.9,0.3,1.9,0.3,3.2c0,1.2-0.1,2.3-0.3,3.2
			h-6.4c-0.2-0.9-0.3-2-0.3-3.2c0-1.3,0.1-2.3,0.3-3.2H9.9c0.2,0.9,0.3,1.9,0.3,3.2c0,1.2-0.1,2.3-0.3,3.2H6.7
			c0.2,0.9,0.3,2,0.3,3.2C7,33,6.9,34,6.7,34.9h3.2c0.2,0.9,0.3,1.9,0.3,3.2c0,1.2-0.1,2.3-0.3,3.2h9.6c-0.2-0.9-0.3-2-0.3-3.2
			c0-1.3,0.1-2.3,0.3-3.2C19.5,34.9,25.9,34.9,25.9,35z M58.3,31.8c0,1.2-0.1,2.3-0.3,3.2h-2.4c0.2,0.9,0.3,1.9,0.3,3.2
			c0,1.2-0.1,2.3-0.3,3.2h-4c0.2,0.9,0.3,1.9,0.3,3.2c0,1.2-0.1,2.3-0.3,3.2H38.8c-0.2-0.9-0.3-2-0.3-3.2c0-1.3,0.1-2.3,0.3-3.2h-4
			c-0.2-0.9-0.3-2-0.3-3.2c0-1.3,0.1-2.3,0.3-3.2h-2.4c-0.3-1-0.4-2-0.4-3.3s0.1-2.3,0.3-3.2h2.4c-0.2-0.9-0.3-2-0.3-3.2
			c0-1.3,0.1-2.3,0.3-3.2h4c-0.2-0.9-0.3-2-0.3-3.2c0-1.3,0.1-2.3,0.3-3.2h12.8c0.2,0.9,0.3,1.9,0.3,3.2c0,1.2-0.1,2.3-0.3,3.2h4
			c0.2,0.9,0.3,1.9,0.3,3.2c0,1.2-0.1,2.3-0.3,3.2H58C58.2,29.4,58.3,30.5,58.3,31.8z M51.6,35c-0.2-0.9-0.3-2-0.3-3.2
			c0-1.3,0.1-2.3,0.3-3.2h-2.4c-0.2-0.9-0.3-2-0.3-3.2c0-1.3,0.1-2.3,0.3-3.2h-8c0.2,0.9,0.3,1.9,0.3,3.2c0,1.2-0.1,2.3-0.3,3.2
			h-2.4c0.2,0.9,0.3,1.9,0.3,3.2c0,1.2-0.1,2.3-0.3,3.2h2.4c0.2,0.9,0.3,1.9,0.3,3.2c0,1.2-0.1,2.3-0.3,3.2h8
			c-0.2-0.9-0.3-2-0.3-3.2c0-1.3,0.1-2.3,0.3-3.2H51.6z M70.3,19c0,1.2-0.1,2.3-0.3,3.2h3.2c0.2,0.9,0.3,1.9,0.3,3.2
			c0,1.2-0.1,2.3-0.3,3.2h-2.4c0.2,0.9,0.3,1.9,0.3,3.2c0,1.2-0.1,2.3-0.3,3.2c0.2,0.9,0.3,1.9,0.3,3.2c0,1.2-0.1,2.3-0.3,3.2
			c0.2,0.9,0.3,1.9,0.3,3.2c0,1.2-0.1,2.3-0.3,3.2h-6.4c-0.2-0.9-0.3-2-0.3-3.2c0-1.3,0.1-2.3,0.3-3.2c-0.2-0.9-0.3-2-0.3-3.2
			c0-1.3,0.1-2.3,0.3-3.2c-0.2-0.9-0.3-2-0.3-3.2c0-1.3,0.1-2.3,0.3-3.2c-0.2-0.9-0.3-2-0.3-3.2c0-1.3,0.1-2.3,0.3-3.2
			c-0.2-0.9-0.3-2-0.3-3.2c0-1.3,0.1-2.3,0.3-3.2H70C70.2,16.6,70.3,17.7,70.3,19z M90,28.6c0.2,0.9,0.3,1.9,0.3,3.2
			c0,1.2-0.1,2.3-0.3,3.2c0.2,0.9,0.3,1.9,0.3,3.2c0,1.2-0.1,2.3-0.3,3.2c0.2,0.9,0.3,1.9,0.3,3.2c0,1.2-0.1,2.3-0.3,3.2h-6.4
			c-0.2-0.9-0.3-2-0.3-3.2c0-1.3,0.1-2.3,0.3-3.2c-0.2-0.9-0.3-2-0.3-3.2c0-1.3,0.1-2.3,0.3-3.2c-0.2-0.9-0.3-2-0.3-3.2
			c0-1.3,0.1-2.3,0.3-3.2c-0.2-0.9-0.3-2-0.3-3.2c0-1.3,0.1-2.3,0.3-3.2H73.2c-0.2-0.9-0.3-2-0.3-3.2c0-1.3,0.1-2.3,0.3-3.2H86
			c0.2,0.9,0.3,1.9,0.3,3.2c0,1.2-0.1,2.3-0.3,3.2h4c0.2,0.9,0.3,1.9,0.3,3.2C90.3,26.6,90.2,27.6,90,28.6z M120.7,38.2
			c0,1.2-0.1,2.3-0.3,3.2h-3.2c0.2,0.9,0.3,1.9,0.3,3.2c0,1.2-0.1,2.3-0.3,3.2H99.6c-0.2-0.9-0.3-2-0.3-3.2c0-1.3,0.1-2.3,0.3-3.2
			H114c-0.2-0.9-0.3-2-0.3-3.2c0-1.3,0.1-2.3,0.3-3.2h-12.8c-0.2-0.9-0.3-2-0.3-3.2c0-1.3,0.1-2.3,0.3-3.2H98
			c-0.2-0.9-0.3-2-0.3-3.2c0-1.3,0.1-2.3,0.3-3.2h3.2c-0.2-0.9-0.3-2-0.3-3.2c0-1.3,0.1-2.3,0.3-3.2h17.6c0.2,0.9,0.3,1.9,0.3,3.2
			c0,1.2-0.1,2.3-0.3,3.2h-14.4c0.2,0.9,0.3,1.9,0.3,3.2c0,1.2-0.1,2.3-0.3,3.2h12.8c0.2,0.9,0.3,1.9,0.3,3.2c0,1.2-0.1,2.3-0.3,3.2
			h3.2C120.6,35.8,120.7,36.9,120.7,38.2z M154.4,31.8c0,1.2-0.1,2.3-0.3,3.2h-2.4c0.2,0.9,0.3,1.9,0.3,3.2c0,1.2-0.1,2.3-0.3,3.2
			h-4c0.2,0.9,0.3,1.9,0.3,3.2c0,1.2-0.1,2.3-0.3,3.2h-12.8c-0.2-0.9-0.3-2-0.3-3.2c0-1.3,0.1-2.3,0.3-3.2h-4
			c-0.2-0.9-0.3-2-0.3-3.2c0-1.3,0.1-2.3,0.3-3.2h-2.4c-0.2-0.9-0.3-2-0.3-3.2c0-1.3,0.1-2.3,0.3-3.2h2.4c-0.2-0.9-0.3-2-0.3-3.2
			c0-1.3,0.1-2.3,0.3-3.2h4c-0.2-0.9-0.3-2-0.3-3.2c0-1.3,0.1-2.3,0.3-3.2h12.8c0.2,0.9,0.3,1.9,0.3,3.2c0,1.2-0.1,2.3-0.3,3.2h4
			c0.2,0.9,0.3,1.9,0.3,3.2c0,1.2-0.1,2.3-0.3,3.2h2.4C154.3,29.4,154.4,30.5,154.4,31.8z M147.6,35c-0.2-0.9-0.3-2-0.3-3.2
			c0-1.3,0.1-2.3,0.3-3.2h-2.4c-0.2-0.9-0.3-2-0.3-3.2c0-1.3,0.1-2.3,0.3-3.2h-8c0.2,0.9,0.3,1.9,0.3,3.2c0,1.2-0.1,2.3-0.3,3.2
			h-2.4c0.2,0.9,0.3,1.9,0.3,3.2c0,1.2-0.1,2.3-0.3,3.2h2.4c0.2,0.9,0.3,1.9,0.3,3.2c0,1.2-0.1,2.3-0.3,3.2h8
			c-0.2-0.9-0.3-2-0.3-3.2c0-1.3,0.1-2.3,0.3-3.2H147.6z M182.9,41.4c0.2,0.9,0.3,1.9,0.3,3.2c0,1.2-0.1,2.3-0.3,3.2h-19.2
			c-0.2-0.9-0.3-2-0.3-3.2c0-1.3,0.1-2.3,0.3-3.2h6.4c-0.2-0.9-0.3-2-0.3-3.2c0-1.3,0.1-2.3,0.3-3.2c-0.2-0.9-0.3-2-0.3-3.2
			c0-1.3,0.1-2.3,0.3-3.2c-0.2-0.9-0.3-2-0.3-3.2c0-1.3,0.1-2.3,0.3-3.2c-0.2-0.9-0.3-2-0.3-3.2c0-1.3,0.1-2.3,0.3-3.2
			c-0.2-0.9-0.3-2-0.3-3.2c0-1.3,0.1-2.3,0.3-3.2h-4.8c-0.2-0.9-0.3-2-0.3-3.2c0-1.3,0.1-2.3,0.3-3.2h11.2c0.2,0.9,0.3,1.9,0.3,3.2
			c0,1.2-0.1,2.3-0.3,3.2c0.2,0.9,0.3,1.9,0.3,3.2c0,1.2-0.1,2.3-0.3,3.2c0.2,0.9,0.3,1.9,0.3,3.2c0,1.2-0.1,2.3-0.3,3.2
			c0.2,0.9,0.3,1.9,0.3,3.2c0,1.2-0.1,2.3-0.3,3.2c0.2,0.9,0.3,1.9,0.3,3.2c0,1.2-0.1,2.3-0.3,3.2c0.2,0.9,0.3,1.9,0.3,3.2
			c0,1.2-0.1,2.3-0.3,3.2H182.9L182.9,41.4z M218.4,25.4c0,1.2-0.1,2.3-0.3,3.2c0.2,0.9,0.3,1.9,0.3,3.2c0,1.2-0.1,2.3-0.3,3.2
			h-16.8c0.2,0.9,0.3,1.9,0.3,3.2c0,1.2-0.1,2.3-0.3,3.2h13.6c0.2,0.9,0.3,1.9,0.3,3.2c0,1.2-0.1,2.3-0.3,3.2h-16
			c-0.2-0.9-0.3-2-0.3-3.2c0-1.3,0.1-2.3,0.3-3.2h-4c-0.2-0.9-0.3-2-0.3-3.2c0-1.3,0.1-2.3,0.3-3.2h-2.4c-0.2-0.9-0.3-2-0.3-3.2
			c0-1.3,0.1-2.3,0.3-3.2h2.4c-0.2-0.9-0.3-2-0.3-3.2c0-1.3,0.1-2.3,0.3-3.2h4c-0.2-0.9-0.3-2-0.3-3.2c0-1.3,0.1-2.3,0.3-3.2h16
			c0.2,0.9,0.3,1.9,0.3,3.2c0,1.2-0.1,2.3-0.3,3.2h3.2C218.3,23,218.4,24.1,218.4,25.4z M211.7,28.6c-0.2-0.9-0.3-2-0.3-3.2
			c0-1.3,0.1-2.3,0.3-3.2h-10.4c0.2,0.9,0.3,1.9,0.3,3.2c0,1.2-0.1,2.3-0.3,3.2H211.7z M241.7,38.2c0,1.2-0.1,2.3-0.3,3.2
			c0.2,0.9,0.3,1.9,0.3,3.2c0,1.2-0.1,2.3-0.3,3.2h-8c-0.2-0.9-0.3-2-0.3-3.2c0-1.3,0.1-2.3,0.3-3.2c-0.2-0.9-0.3-2-0.3-3.2
			c0-1.3,0.1-2.3,0.3-3.2h8C241.6,35.8,241.7,36.9,241.7,38.2z"/>
	</defs>
	<use xlink:href="#SVGID_1_"  style="overflow:visible;fill:#FFFFFF;"/>
	<clipPath id="SVGID_2_">
		<use xlink:href="#SVGID_1_"  style="overflow:visible;"/>
	</clipPath>
</g>
<g id="Layer_3">
	<path class="st2" d="M303.4,15.8c0-8.5-6.9-15.3-15.3-15.3c-5.1,0-9.7,2.5-12.5,6.4c-2.8-3.9-7.3-6.4-12.5-6.4
		c-8.5,0-15.3,6.9-15.3,15.3c0,1.2,0.2,2.4,0.4,3.5c2.1,13.2,16.8,27.2,27.4,31c10.5-3.8,25.3-17.8,27.4-31
		C303.2,18.2,303.4,17,303.4,15.8z"/>
</g>
</svg>
