<?xml version="1.0" encoding="utf-8"?>
<!-- Generator: Adobe Illustrator 19.0.0, SVG Export Plug-In . SVG Version: 6.00 Build 0)  -->
<svg version="1.1" xmlns="http://www.w3.org/2000/svg" xmlns:xlink="http://www.w3.org/1999/xlink" x="0px" y="0px"
	 viewBox="-153 372.8 291.3 49.3" style="enable-background:new -153 372.8 291.3 49.3;" xml:space="preserve">
<style type="text/css">
	.st0{display:none;}
	.st1{display:inline;}
	.st2{fill:#FFFFFF;}
</style>
<g id="Layer_2_1_" class="st0">
	<rect x="-153" y="372" class="st1" width="303.4" height="50"/>
</g>
<g id="Layer_1">
	<g id="Layer_2" class="st0">
		<rect x="-153" y="372" class="st1" width="303.4" height="50"/>
	</g>
	<g id="Layer_1_1_">
		<g>
			<path id="SVGID_1_" class="st2" d="M-127.1,407c0.2,0.9,0.3,1.9,0.3,3.2c0,1.2-0.1,2.3-0.3,3.2h-3.2c0.2,0.9,0.3,1.9,0.3,3.2
				c0,1.2-0.1,2.3-0.3,3.2h-16c-0.2-0.9-0.3-2-0.3-3.2c0-1.3,0.1-2.3,0.3-3.2h-3.2c-0.2-0.9-0.3-2-0.3-3.2c0-1.3,0.1-2.3,0.3-3.2
				h-3.2c-0.2-1-0.3-2-0.3-3.3c0-1.3,0.1-2.3,0.3-3.2h3.2c-0.2-0.9-0.3-2-0.3-3.2c0-1.3,0.1-2.3,0.3-3.2h3.2c-0.2-0.9-0.3-2-0.3-3.2
				c0-1.3,0.1-2.3,0.3-3.2h16c0.2,0.9,0.3,1.9,0.3,3.2c0,1.2-0.1,2.3-0.3,3.2h3.2c0.2,0.9,0.3,1.9,0.3,3.2c0,1.2-0.1,2.3-0.3,3.2
				h-6.4c-0.2-0.9-0.3-2-0.3-3.2c0-1.3,0.1-2.3,0.3-3.2h-9.6c0.2,0.9,0.3,1.9,0.3,3.2c0,1.2-0.1,2.3-0.3,3.2h-3.2
				c0.2,0.9,0.3,2,0.3,3.2c0,1.3-0.1,2.3-0.3,3.2h3.2c0.2,0.9,0.3,1.9,0.3,3.2c0,1.2-0.1,2.3-0.3,3.2h9.6c-0.2-0.9-0.3-2-0.3-3.2
				c0-1.3,0.1-2.3,0.3-3.2C-133.5,406.9-127.1,406.9-127.1,407z M-94.7,403.8c0,1.2-0.1,2.3-0.3,3.2h-2.4c0.2,0.9,0.3,1.9,0.3,3.2
				c0,1.2-0.1,2.3-0.3,3.2h-4c0.2,0.9,0.3,1.9,0.3,3.2c0,1.2-0.1,2.3-0.3,3.2h-12.8c-0.2-0.9-0.3-2-0.3-3.2c0-1.3,0.1-2.3,0.3-3.2
				h-4c-0.2-0.9-0.3-2-0.3-3.2c0-1.3,0.1-2.3,0.3-3.2h-2.4c-0.3-1-0.4-2-0.4-3.3c0-1.3,0.1-2.3,0.3-3.2h2.4c-0.2-0.9-0.3-2-0.3-3.2
				c0-1.3,0.1-2.3,0.3-3.2h4c-0.2-0.9-0.3-2-0.3-3.2c0-1.3,0.1-2.3,0.3-3.2h12.8c0.2,0.9,0.3,1.9,0.3,3.2c0,1.2-0.1,2.3-0.3,3.2h4
				c0.2,0.9,0.3,1.9,0.3,3.2c0,1.2-0.1,2.3-0.3,3.2h2.5C-94.8,401.4-94.7,402.5-94.7,403.8z M-101.4,407c-0.2-0.9-0.3-2-0.3-3.2
				c0-1.3,0.1-2.3,0.3-3.2h-2.4c-0.2-0.9-0.3-2-0.3-3.2c0-1.3,0.1-2.3,0.3-3.2h-8c0.2,0.9,0.3,1.9,0.3,3.2c0,1.2-0.1,2.3-0.3,3.2
				h-2.4c0.2,0.9,0.3,1.9,0.3,3.2c0,1.2-0.1,2.3-0.3,3.2h2.4c0.2,0.9,0.3,1.9,0.3,3.2c0,1.2-0.1,2.3-0.3,3.2h8
				c-0.2-0.9-0.3-2-0.3-3.2c0-1.3,0.1-2.3,0.3-3.2H-101.4z M-82.7,391c0,1.2-0.1,2.3-0.3,3.2h3.2c0.2,0.9,0.3,1.9,0.3,3.2
				c0,1.2-0.1,2.3-0.3,3.2h-2.4c0.2,0.9,0.3,1.9,0.3,3.2c0,1.2-0.1,2.3-0.3,3.2c0.2,0.9,0.3,1.9,0.3,3.2c0,1.2-0.1,2.3-0.3,3.2
				c0.2,0.9,0.3,1.9,0.3,3.2c0,1.2-0.1,2.3-0.3,3.2h-6.4c-0.2-0.9-0.3-2-0.3-3.2c0-1.3,0.1-2.3,0.3-3.2c-0.2-0.9-0.3-2-0.3-3.2
				c0-1.3,0.1-2.3,0.3-3.2c-0.2-0.9-0.3-2-0.3-3.2c0-1.3,0.1-2.3,0.3-3.2c-0.2-0.9-0.3-2-0.3-3.2c0-1.3,0.1-2.3,0.3-3.2
				c-0.2-0.9-0.3-2-0.3-3.2c0-1.3,0.1-2.3,0.3-3.2h5.6C-82.8,388.6-82.7,389.7-82.7,391z M-63,400.6c0.2,0.9,0.3,1.9,0.3,3.2
				c0,1.2-0.1,2.3-0.3,3.2c0.2,0.9,0.3,1.9,0.3,3.2c0,1.2-0.1,2.3-0.3,3.2c0.2,0.9,0.3,1.9,0.3,3.2c0,1.2-0.1,2.3-0.3,3.2h-6.4
				c-0.2-0.9-0.3-2-0.3-3.2c0-1.3,0.1-2.3,0.3-3.2c-0.2-0.9-0.3-2-0.3-3.2c0-1.3,0.1-2.3,0.3-3.2c-0.2-0.9-0.3-2-0.3-3.2
				c0-1.3,0.1-2.3,0.3-3.2c-0.2-0.9-0.3-2-0.3-3.2c0-1.3,0.1-2.3,0.3-3.2h-10.4c-0.2-0.9-0.3-2-0.3-3.2c0-1.3,0.1-2.3,0.3-3.2H-67
				c0.2,0.9,0.3,1.9,0.3,3.2c0,1.2-0.1,2.3-0.3,3.2h4c0.2,0.9,0.3,1.9,0.3,3.2C-62.7,398.6-62.8,399.6-63,400.6z M-32.3,410.2
				c0,1.2-0.1,2.3-0.3,3.2h-3.2c0.2,0.9,0.3,1.9,0.3,3.2c0,1.2-0.1,2.3-0.3,3.2h-17.6c-0.2-0.9-0.3-2-0.3-3.2c0-1.3,0.1-2.3,0.3-3.2
				H-39c-0.2-0.9-0.3-2-0.3-3.2c0-1.3,0.1-2.3,0.3-3.2h-12.8c-0.2-0.9-0.3-2-0.3-3.2c0-1.3,0.1-2.3,0.3-3.2H-55
				c-0.2-0.9-0.3-2-0.3-3.2c0-1.3,0.1-2.3,0.3-3.2h3.2c-0.2-0.9-0.3-2-0.3-3.2c0-1.3,0.1-2.3,0.3-3.2h17.6c0.2,0.9,0.3,1.9,0.3,3.2
				c0,1.2-0.1,2.3-0.3,3.2h-14.4c0.2,0.9,0.3,1.9,0.3,3.2c0,1.2-0.1,2.3-0.3,3.2h12.8c0.2,0.9,0.3,1.9,0.3,3.2
				c0,1.2-0.1,2.3-0.3,3.2h3.2C-32.4,407.8-32.3,408.9-32.3,410.2z M1.4,403.8c0,1.2-0.1,2.3-0.3,3.2h-2.4c0.2,0.9,0.3,1.9,0.3,3.2
				c0,1.2-0.1,2.3-0.3,3.2h-4c0.2,0.9,0.3,1.9,0.3,3.2c0,1.2-0.1,2.3-0.3,3.2h-12.8c-0.2-0.9-0.3-2-0.3-3.2c0-1.3,0.1-2.3,0.3-3.2
				h-4c-0.2-0.9-0.3-2-0.3-3.2c0-1.3,0.1-2.3,0.3-3.2h-2.4c-0.2-0.9-0.3-2-0.3-3.2c0-1.3,0.1-2.3,0.3-3.2h2.4
				c-0.2-0.9-0.3-2-0.3-3.2c0-1.3,0.1-2.3,0.3-3.2h4c-0.2-0.9-0.3-2-0.3-3.2c0-1.3,0.1-2.3,0.3-3.2h12.8c0.2,0.9,0.3,1.9,0.3,3.2
				c0,1.2-0.1,2.3-0.3,3.2h4c0.2,0.9,0.3,1.9,0.3,3.2c0,1.2-0.1,2.3-0.3,3.2h2.4C1.3,401.4,1.4,402.5,1.4,403.8z M-5.4,407
				c-0.2-0.9-0.3-2-0.3-3.2c0-1.3,0.1-2.3,0.3-3.2h-2.4c-0.2-0.9-0.3-2-0.3-3.2c0-1.3,0.1-2.3,0.3-3.2h-8c0.2,0.9,0.3,1.9,0.3,3.2
				c0,1.2-0.1,2.3-0.3,3.2h-2.4c0.2,0.9,0.3,1.9,0.3,3.2c0,1.2-0.1,2.3-0.3,3.2h2.4c0.2,0.9,0.3,1.9,0.3,3.2c0,1.2-0.1,2.3-0.3,3.2
				h8c-0.2-0.9-0.3-2-0.3-3.2c0-1.3,0.1-2.3,0.3-3.2H-5.4z M29.9,413.4c0.2,0.9,0.3,1.9,0.3,3.2c0,1.2-0.1,2.3-0.3,3.2H10.7
				c-0.2-0.9-0.3-2-0.3-3.2c0-1.3,0.1-2.3,0.3-3.2h6.4c-0.2-0.9-0.3-2-0.3-3.2c0-1.3,0.1-2.3,0.3-3.2c-0.2-0.9-0.3-2-0.3-3.2
				c0-1.3,0.1-2.3,0.3-3.2c-0.2-0.9-0.3-2-0.3-3.2c0-1.3,0.1-2.3,0.3-3.2c-0.2-0.9-0.3-2-0.3-3.2c0-1.3,0.1-2.3,0.3-3.2
				c-0.2-0.9-0.3-2-0.3-3.2c0-1.3,0.1-2.3,0.3-3.2h-4.8c-0.2-0.9-0.3-2-0.3-3.2c0-1.3,0.1-2.3,0.3-3.2h11.2c0.2,0.9,0.3,1.9,0.3,3.2
				c0,1.2-0.1,2.3-0.3,3.2c0.2,0.9,0.3,1.9,0.3,3.2c0,1.2-0.1,2.3-0.3,3.2c0.2,0.9,0.3,1.9,0.3,3.2c0,1.2-0.1,2.3-0.3,3.2
				c0.2,0.9,0.3,1.9,0.3,3.2c0,1.2-0.1,2.3-0.3,3.2c0.2,0.9,0.3,1.9,0.3,3.2c0,1.2-0.1,2.3-0.3,3.2c0.2,0.9,0.3,1.9,0.3,3.2
				c0,1.2-0.1,2.3-0.3,3.2H29.9L29.9,413.4z M65.4,397.4c0,1.2-0.1,2.3-0.3,3.2c0.2,0.9,0.3,1.9,0.3,3.2c0,1.2-0.1,2.3-0.3,3.2H48.3
				c0.2,0.9,0.3,1.9,0.3,3.2c0,1.2-0.1,2.3-0.3,3.2h13.6c0.2,0.9,0.3,1.9,0.3,3.2c0,1.2-0.1,2.3-0.3,3.2h-16c-0.2-0.9-0.3-2-0.3-3.2
				c0-1.3,0.1-2.3,0.3-3.2h-4c-0.2-0.9-0.3-2-0.3-3.2c0-1.3,0.1-2.3,0.3-3.2h-2.4c-0.2-0.9-0.3-2-0.3-3.2c0-1.3,0.1-2.3,0.3-3.2h2.4
				c-0.2-0.9-0.3-2-0.3-3.2c0-1.3,0.1-2.3,0.3-3.2h4c-0.2-0.9-0.3-2-0.3-3.2c0-1.3,0.1-2.3,0.3-3.2h16c0.2,0.9,0.3,1.9,0.3,3.2
				c0,1.2-0.1,2.3-0.3,3.2h3.2C65.3,395,65.4,396.1,65.4,397.4z M58.7,400.6c-0.2-0.9-0.3-2-0.3-3.2c0-1.3,0.1-2.3,0.3-3.2H48.3
				c0.2,0.9,0.3,1.9,0.3,3.2c0,1.2-0.1,2.3-0.3,3.2H58.7z M88.7,410.2c0,1.2-0.1,2.3-0.3,3.2c0.2,0.9,0.3,1.9,0.3,3.2
				c0,1.2-0.1,2.3-0.3,3.2h-8c-0.2-0.9-0.3-2-0.3-3.2c0-1.3,0.1-2.3,0.3-3.2c-0.2-0.9-0.3-2-0.3-3.2c0-1.3,0.1-2.3,0.3-3.2h8
				C88.6,407.8,88.7,408.9,88.7,410.2z"/>
		</g>
	</g>
	<g id="_x2764__xFE0F_">
		<path class="st2" d="M113.5,422c-0.3,0-0.6-0.1-0.8-0.4l-21.3-27.2l-0.7-1.1c-1.3-2.2-2-4.6-2-7.1c0-7.5,6.1-13.5,13.5-13.5
			c4.6,0,8.8,2.3,11.3,6.1c2.5-3.8,6.7-6.1,11.3-6.1c7.5,0,13.5,6.1,13.5,13.5c0,2.9-0.9,5.7-2.6,8l-21.4,27.5
			C114.1,422,113.8,422,113.5,422z"/>
	</g>
</g>
</svg>
